<?xml version="1.0" encoding="UTF-8" standalone="no"?>
<svg
   xmlns:dc="http://purl.org/dc/elements/1.1/"
   xmlns:cc="http://creativecommons.org/ns#"
   xmlns:rdf="http://www.w3.org/1999/02/22-rdf-syntax-ns#"
   xmlns:svg="http://www.w3.org/2000/svg"
   xmlns="http://www.w3.org/2000/svg"
   viewBox="0 0 1000 666.66669"
   height="666.66669"
   width="1000"
   xml:space="preserve"
   id="svg2"
   version="1.1"><metadata
     id="metadata8"><rdf:RDF><cc:Work
         rdf:about=""><dc:format>image/svg+xml</dc:format><dc:type
           rdf:resource="http://purl.org/dc/dcmitype/StillImage" /></cc:Work></rdf:RDF></metadata><defs
     id="defs6"><clipPath
       id="clipPath20"
       clipPathUnits="userSpaceOnUse"><path
         id="path18"
         d="M 0,500 H 750 V 0 H 0 Z" /></clipPath><clipPath
       id="clipPath28"
       clipPathUnits="userSpaceOnUse"><path
         id="path26"
         d="M 58.5042,455.435 H 248.95 V 77.4516 H 58.5042 Z" /></clipPath><clipPath
       id="clipPath44"
       clipPathUnits="userSpaceOnUse"><path
         id="path42"
         d="M 269.549,459.971 H 481.686 V 68.3705 H 269.549 Z" /></clipPath><clipPath
       id="clipPath60"
       clipPathUnits="userSpaceOnUse"><path
         id="path58"
         d="M 504.134,424.356 H 712.248 V 76.7541 H 504.134 Z" /></clipPath><clipPath
       id="clipPath76"
       clipPathUnits="userSpaceOnUse"><path
         id="path74"
         d="M 0,500 H 750 V 0 H 0 Z" /></clipPath><clipPath
       id="clipPath444"
       clipPathUnits="userSpaceOnUse"><path
         id="path442"
         d="m 571.82,151.795 h 0.03 v -0.16 h -0.03 z" /></clipPath><clipPath
       id="clipPath460"
       clipPathUnits="userSpaceOnUse"><path
         id="path458"
         d="m 571.85,154.975 h 0.65 v -3.17 h -0.65 z" /></clipPath><clipPath
       id="clipPath536"
       clipPathUnits="userSpaceOnUse"><path
         id="path534"
         d="M 563.98,206.885 H 671.31 V 81.8127 H 563.98 Z" /></clipPath><clipPath
       id="clipPath552"
       clipPathUnits="userSpaceOnUse"><path
         id="path550"
         d="m 673.09,249.405 h 51.1 v -79.09 h -51.1 z" /></clipPath><clipPath
       id="clipPath568"
       clipPathUnits="userSpaceOnUse"><path
         id="path566"
         d="m 548.17,205.555 h 33.27 v -46.64 h -33.27 z" /></clipPath></defs><g
     transform="matrix(1.3333333,0,0,-1.3333333,0,666.66667)"
     id="g10"><path
       id="path12"
       style="fill:#00000000;fill-opacity:1;fill-rule:nonzero;stroke:none"
       d="M 0,0 H 750 V 500 H 0 Z" /><g
       id="g14"><g
         clip-path="url(#clipPath20)"
         id="g16"><g
           id="g22"><g
             id="g24" /><g
             id="g36"><g
               style="opacity:0.22999603"
               id="g34"
               clip-path="url(#clipPath28)"><g
                 id="g32"
                 transform="translate(145.551,82.7918)"><path
                   id="path30"
                   style="fill:#5ba2d6;fill-opacity:1;fill-rule:nonzero;stroke:none"
                   d="m 0,0 c -26.431,11.959 -53.842,28.095 -64.487,55.082 -11.814,29.948 0.552,63.488 0.255,95.681 -0.236,25.503 -8.5,50.132 -15.002,74.793 -6.502,24.661 -11.278,50.864 -4.569,75.47 4.491,16.472 14.03,31.376 26.345,43.202 21.686,20.825 52.931,32.095 82.618,27.332 29.686,-4.764 56.656,-26.465 65.335,-55.252 12.297,-40.784 -11.722,-84.322 -6.617,-126.613 1.997,-16.548 8.39,-32.197 12.725,-48.292 4.606,-17.103 6.898,-34.829 6.792,-52.541 C 103.234,61.716 96.354,32.751 76.102,14.673 55.674,-3.563 25.274,-11.436 0,0" /></g></g></g></g><g
           id="g38"><g
             id="g40" /><g
             id="g52"><g
               style="opacity:0.22999603"
               id="g50"
               clip-path="url(#clipPath44)"><g
                 id="g48"
                 transform="translate(271.136,160.2169)"><path
                   id="path46"
                   style="fill:#5ba2d6;fill-opacity:1;fill-rule:nonzero;stroke:none"
                   d="m 0,0 c 2.759,11.778 8.691,22.544 12.683,33.964 7.968,22.795 8.01,47.633 5.336,71.633 -2.674,23.999 -7.96,47.659 -10.371,71.686 -1.892,18.857 -1.947,38.274 3.861,56.313 9.95,30.906 37.372,54.995 68.841,62.99 31.468,7.994 66.056,0.465 92.698,-18.092 8.403,-5.854 16.164,-12.841 21.765,-21.415 14.76,-22.596 12.361,-52.246 5.737,-78.41 -6.624,-26.165 -16.982,-51.983 -16.436,-78.968 0.4,-19.794 6.679,-38.942 12.967,-57.715 6.287,-18.774 12.709,-37.851 13.413,-57.637 0.703,-19.786 -5.136,-40.757 -19.914,-53.932 -10.021,-8.934 -23.166,-13.524 -36.241,-16.569 C 105.431,-97.543 30.792,-95.74 5.45,-43.859 -1.135,-30.379 -3.44,-14.683 0,0" /></g></g></g></g><g
           id="g54"><g
             id="g56" /><g
             id="g68"><g
               style="opacity:0.22999603"
               id="g66"
               clip-path="url(#clipPath60)"><g
                 id="g64"
                 transform="translate(504.7909,177.9778)"><path
                   id="path62"
                   style="fill:#5ba2d6;fill-opacity:1;fill-rule:nonzero;stroke:none"
                   d="m 0,0 c 3.518,29.602 19.798,56.086 27.385,84.915 5.681,21.584 6.397,44.112 9.191,66.255 2.795,22.144 8.018,44.751 21.289,62.696 17.687,23.915 49.424,36.557 78.71,31.353 29.286,-5.204 54.725,-28.006 63.09,-56.55 10.788,-36.81 -5.581,-75.869 -4.676,-114.217 0.502,-21.288 6.34,-42.037 9.862,-63.038 3.522,-21.001 4.577,-43.348 -4,-62.839 -11.465,-26.053 -38.749,-42.57 -66.754,-47.663 -27.864,-5.066 -56.999,-0.102 -84.642,4.351 -22.234,3.582 -37.088,29.76 -44.026,49.093 C 0.209,-31.098 -1.827,-15.371 0,0" /></g></g></g></g></g></g><g
       id="g70"><g
         clip-path="url(#clipPath76)"
         id="g72"><g
           transform="translate(333.3432,88.0658)"
           id="g78"><path
             id="path80"
             style="fill:#194f97;fill-opacity:1;fill-rule:nonzero;stroke:none"
             d="m 0,0 c -0.206,-0.114 2.121,-21.684 2.121,-21.684 0,0 99.941,-8.72 123.742,16.263 4.023,9.397 2.118,12.492 2.118,12.492 0,0 -97.577,9.663 -127.981,-7.071" /></g><g
           transform="translate(385.4314,71.803)"
           id="g82"><path
             id="path84"
             style="fill:none;stroke:#5ba2d6;stroke-width:1;stroke-linecap:round;stroke-linejoin:round;stroke-miterlimit:10;stroke-dasharray:none;stroke-opacity:1"
             d="M 0,0 H 16.263 V -5.963" /></g><g
           transform="translate(410.07,291.6151)"
           id="g86"><path
             id="path88"
             style="fill:#e58e67;fill-opacity:1;fill-rule:nonzero;stroke:none"
             d="m 0,0 c -2.07,-4.72 -4.98,-9.07 -8.55,-12.79 -1.72,-1.79 -3.7,-3.49 -6.12,-4.01 -1.45,-0.31 -2.97,-0.17 -4.45,0 -5.67,0.66 -11.37,1.77 -16.52,4.24 -5.14,2.47 -9.74,6.43 -12.1,11.63 -0.15,0.33 -0.3,0.68 -0.24,1.03 0.07,0.49 0.5,0.84 0.87,1.17 3.66,3.27 4.51,8.61 4.82,13.51 0.02,0.36 0.04,0.72 0.06,1.08 0.2,3.62 0.21,7.24 0.06,10.86 l 1.1,0.44 c 1.7,1.77 4.54,1.52 6.94,1.07 8.6,-1.62 17.02,-4.19 25.07,-7.65 C -9.18,17.8 -9.56,15 -9.54,12.23 -9.53,10.7 -9.39,9.16 -9.02,7.67 -7.98,3.48 -4.29,-0.51 0,0" /></g><g
           transform="translate(401.01,312.195)"
           id="g90"><path
             id="path92"
             style="fill:#e2764b;fill-opacity:1;fill-rule:nonzero;stroke:none"
             d="m 0,0 c -0.12,-2.78 -0.5,-5.58 -0.48,-8.35 -4.04,-0.85 -8.94,-1.08 -14.46,-0.75 -6.64,0.41 -13.06,2 -18.23,4.38 0.2,3.62 0.21,7.24 0.06,10.86 l 1.1,0.44 c 1.7,1.77 4.54,1.52 6.94,1.07 C -16.47,6.03 -8.05,3.46 0,0" /></g><g
           transform="translate(415.13,92.775)"
           id="g94"><path
             id="path96"
             style="fill:#ffffff;fill-opacity:1;fill-rule:nonzero;stroke:none"
             d="m 0,0 c 0,0 -38.89,-3.53 -43.84,-1.88 -0.66,0.22 -1.15,3.92 -1.49,10.16 -2.23,40.49 1.49,188.06 1.49,188.06 0,0 22.63,-19.09 35.59,6.6 1.41,-2.96 2.59,-12.36 3.57,-25.6 C -0.61,122.1 0,0 0,0" /></g><g
           transform="translate(369.09,286.5194)"
           id="g98"><path
             id="path100"
             style="fill:none;stroke:#d7d1cc;stroke-width:1.5;stroke-linecap:round;stroke-linejoin:round;stroke-miterlimit:10;stroke-dasharray:none;stroke-opacity:1"
             d="M 0,0 C 0,0 23.412,-16.263 33.783,-1.178" /></g><g
           transform="translate(415.13,92.775)"
           id="g102"><path
             id="path104"
             style="fill:#f2efee;fill-opacity:1;fill-rule:nonzero;stroke:none"
             d="m 0,0 c 0,0 -38.89,-3.53 -43.84,-1.88 -0.66,0.22 -1.15,3.92 -1.49,10.16 4.44,2.05 9.8,4.44 15.63,6.86 15.65,6.49 12.34,28.33 8.13,52.49 -3.15,18.1 10.06,79.86 16.89,109.71 C -0.61,122.1 0,0 0,0" /></g><g
           transform="translate(272.34,67.985)"
           id="g106"><path
             id="path108"
             style="fill:#e58e67;fill-opacity:1;fill-rule:nonzero;stroke:none"
             d="m 0,0 c -1.74,-2.89 -3.66,-6.32 -3.59,-7.33 0.13,-1.83 3.38,-4.26 0.09,-11.02 -3.3,-6.75 -9.63,-14.45 -11.23,-18.92 -1.59,-4.46 -2.46,-10.52 -5.71,-12 -0.59,-0.27 -1.09,-0.39 -1.52,-0.4 -1.94,-0.03 -2.37,2.3 -2.23,4.31 0.18,2.46 4.41,14.6 4.83,18.59 0.42,3.99 -11.25,-22.13 -13.37,-23.19 -1.43,-0.71 -4.54,-2.14 -8.4,-0.77 v 0.01 c -1.85,0.64 -3.88,1.94 -5.99,4.27 1.61,5.98 14.24,24.88 14.28,26.53 0,0.06 -0.01,0.09 -0.04,0.11 -0.03,0.02 -0.07,0.01 -0.12,-0.02 -1.73,-0.85 -17.31,-21.75 -19.52,-21.01 -2.27,0.75 -4.85,5.14 -2.95,7.94 1.86,2.75 17.95,21.03 18.45,21.6 -0.47,-0.3 -12.26,-7.79 -14.55,-5.49 -2.35,2.36 -4.47,4.57 4.13,9.22 8.6,4.65 14.91,12.66 21.27,12.88 6.35,0.21 6.17,-0.29 8.78,4.82 2.61,5.12 4.26,4.41 4.26,4.41 L 2.78,4.41 C 2.78,4.41 1.45,2.39 0,0" /></g><g
           transform="translate(257.4203,61.5499)"
           id="g110"><path
             id="path112"
             style="fill:none;stroke:#bc5337;stroke-width:1;stroke-linecap:round;stroke-linejoin:round;stroke-miterlimit:10;stroke-dasharray:none;stroke-opacity:1"
             d="M 0,0 C 0,0 -9.427,-7.73 -20.972,-4.432" /></g><g
           transform="translate(257.7007,41.2498)"
           id="g114"><path
             id="path116"
             style="fill:none;stroke:#bc5337;stroke-width:1;stroke-linecap:round;stroke-linejoin:round;stroke-miterlimit:10;stroke-dasharray:none;stroke-opacity:1"
             d="M 0,0 C 0,0 -9.177,0.998 -20.856,8.413" /></g><g
           transform="translate(231.206,17.2565)"
           id="g118"><path
             id="path120"
             style="fill:none;stroke:#bc5337;stroke-width:1;stroke-linecap:round;stroke-linejoin:round;stroke-miterlimit:10;stroke-dasharray:none;stroke-opacity:1"
             d="M 0,0 15.015,27.438" /></g><g
           transform="translate(268.75,60.655)"
           id="g122"><path
             id="path124"
             style="fill:#e2764b;fill-opacity:1;fill-rule:nonzero;stroke:none"
             d="m 0,0 c 0.13,-1.83 3.38,-4.26 0.09,-11.02 -3.3,-6.75 -9.63,-14.45 -11.23,-18.92 -1.59,-4.46 -2.46,-10.52 -5.71,-12 -0.59,-0.27 -1.09,-0.39 -1.52,-0.4 2.51,6.39 7.84,19.64 11.66,27.14 5.17,10.15 1.99,18.44 -4.83,22.92 3.75,4.29 0.75,8.71 0.51,9.06 L 3.59,7.33 C 1.85,4.44 -0.07,1.01 0,0" /></g><g
           transform="translate(463.96,408.905)"
           id="g126"><path
             id="path128"
             style="fill:#e58e67;fill-opacity:1;fill-rule:nonzero;stroke:none"
             d="m 0,0 -16.94,-8.3 c 0,0 -1.72,-0.51 -3.74,4.86 -2.03,5.37 -1.91,4.86 -8.2,5.77 -6.29,0.92 -11.67,9.57 -19.7,15.15 -8.03,5.58 -5.68,7.54 -3.09,9.62 2.54,2.04 13.4,-6.71 13.85,-7.07 -0.44,0.63 -14.39,20.58 -15.94,23.52 -1.57,2.99 1.47,7.06 3.82,7.56 2.28,0.49 15.48,-22.08 17.06,-23.04 0.06,-0.03 0.09,-0.04 0.12,-0.03 0.02,0.02 0.04,0.05 0.05,0.1 0.15,1.63 -10.31,21.84 -11.25,27.95 2.35,2.08 4.51,3.14 6.43,3.59 3.99,0.93 6.92,-0.84 8.26,-1.7 1.99,-1.28 10.69,-28.54 10.72,-24.53 0.03,4.01 -2.83,16.55 -2.74,19.01 0.1,2.45 1.11,5.3 4.17,3.47 0.23,-0.13 0.44,-0.29 0.63,-0.48 2.46,-2.24 2.7,-7.81 3.71,-12.08 1.09,-4.62 6.53,-12.97 9.06,-20.05 C -1.2,16.25 -4.7,14.19 -5.03,12.38 -5.28,10.98 -2.15,4.36 -0.71,1.42 -0.28,0.55 0,0 0,0" /></g><g
           transform="translate(463.25,410.325)"
           id="g130"><path
             id="path132"
             style="fill:#e2764b;fill-opacity:1;fill-rule:nonzero;stroke:none"
             d="m 0,0 -3.46,-1.95 c 0,0 -2.46,9.46 -8.45,9.85 7.09,3.08 4.83,13.85 0,21.42 -3.49,5.46 -3.91,18.08 -3.87,24.71 2.46,-2.24 2.7,-7.81 3.71,-12.08 1.09,-4.62 6.53,-12.97 9.06,-20.05 C -0.49,14.83 -3.99,12.77 -4.32,10.96 -4.57,9.56 -1.44,2.94 0,0" /></g><g
           transform="translate(447.5685,421.6551)"
           id="g134"><path
             id="path136"
             style="fill:none;stroke:#bc5337;stroke-width:1;stroke-linecap:round;stroke-linejoin:round;stroke-miterlimit:10;stroke-dasharray:none;stroke-opacity:1"
             d="M 0,0 C 0,0 -8.511,8.728 -20.351,6.73" /></g><g
           transform="translate(450.0982,441.7989)"
           id="g138"><path
             id="path140"
             style="fill:none;stroke:#bc5337;stroke-width:1;stroke-linecap:round;stroke-linejoin:round;stroke-miterlimit:10;stroke-dasharray:none;stroke-opacity:1"
             d="M 0,0 C 0,0 -9.231,0.026 -21.66,-6.048" /></g><g
           transform="translate(426.4275,468.5822)"
           id="g142"><path
             id="path144"
             style="fill:none;stroke:#bc5337;stroke-width:1;stroke-linecap:round;stroke-linejoin:round;stroke-miterlimit:10;stroke-dasharray:none;stroke-opacity:1"
             d="M 0,0 11.88,-28.934" /></g><g
           transform="translate(391.09,106.625)"
           id="g146"><path
             id="path148"
             style="fill:#ffbfc2;fill-opacity:1;fill-rule:nonzero;stroke:none"
             d="m 0,0 c -0.41,-6.64 -8.72,-9 -10.83,-9.49 -0.31,-0.08 -0.49,-0.11 -0.49,-0.11 0,0 0.48,-6.6 -2.82,-9.9 -1.46,-1.46 -7.14,-2.23 -13.73,-2.59 -8.27,-0.46 -17.98,-0.27 -22.57,0 -8.25,0.47 -12.49,-0.24 -10.84,8.95 h -0.04 c -1.29,-0.11 -2.49,-0.05 -3.63,0.18 -0.02,0 -0.04,0 -0.05,0.01 -0.01,-0.01 -0.01,-0.01 -0.02,0 -5.23,1.05 -8.64,5.58 -9.02,13.82 -0.08,1.96 0,4.12 0.27,6.5 -7.06,-12.06 -20.74,-24.77 -30.01,-32.61 -4.35,-3.68 -7.73,-6.29 -9.02,-7.28 -0.37,-0.27 -0.57,-0.42 -0.57,-0.42 0,0 0,-6.6 -2.36,-8.48 -1.33,-1.07 -8.77,2.84 -14.96,6.78 -4.76,3.02 -8.79,6.07 -8.75,6.89 0.09,1.88 1.79,7.78 5.56,8.01 0.95,32.06 19.57,61.05 29.23,74.95 9.66,13.91 10.84,21.92 16.26,55.33 5.42,33.41 10.61,46.02 13.67,51.87 2.95,5.62 37.79,24.89 40.6,26.44 0.12,0.07 0.18,0.1 0.18,0.1 2.16,4.85 4.58,6.65 6.95,6.66 4.62,0.02 9.13,-6.73 11.52,-11.24 3.62,-6.83 1.09,-17.67 1.09,-17.67 0,0 2.12,-27.58 3.77,-45.26 0.67,-7.21 2.64,-27.48 4.7,-49.48 V 71.91 C -2.91,40 0.28,4.5 0,0" /></g><g
           transform="translate(470.28,112.105)"
           id="g150"><path
             id="path152"
             style="fill:#ffbfc2;fill-opacity:1;fill-rule:nonzero;stroke:none"
             d="m 0,0 c 0.47,-11.55 -7.05,-10.84 -7.05,-10.84 0,0 2.57,-6.54 0,-9.22 -1.44,-1.5 -15.68,-2.57 -28.6,-3.22 -10.15,-0.51 -19.5,-0.76 -21.15,-0.76 -3.77,0 -5.07,10.39 -5.07,10.39 0,0 -5.07,2.34 -8.28,4.08 -3.22,1.75 0.62,33.38 1.8,64.25 1.18,30.88 4.01,107.85 4.01,107.85 0,0 -8.49,5.29 -4.95,20.94 1.57,6.98 4.98,9.06 8.28,9.22 4.08,0.2 7.98,-2.56 7.98,-2.56 0.34,0.18 0.67,0.35 1,0.52 8.89,4.37 15.12,2.49 17.7,1.26 h 0.01 c 0.87,-0.42 1.32,-0.76 1.32,-0.76 3.03,7.27 7.9,15.74 12.85,23.56 l 0.01,0.01 c 8.53,13.47 17.31,24.98 17.31,24.98 l -20.97,44.08 c 0,0 -4.25,-1.65 -4.95,4.24 2.47,4.32 8.11,8.19 13.63,10.87 5.02,2.44 9.95,3.9 12.32,3.82 4.96,-0.16 5.85,-3.12 5.63,-6.4 v -0.04 c 4.05,-2.37 8.29,-5.66 12.5,-9.55 17.08,-15.79 33.55,-41.55 33.93,-56.68 0.47,-18.79 -53.08,-78.72 -57.46,-81.98 -0.02,-0.02 -0.03,-0.03 -0.05,-0.04 0.62,-2.87 2.77,-40.89 4.72,-77.79 V 70.19 C -1.8,37.35 -0.23,5.44 0,0" /></g><g
           transform="translate(467.48,248.145)"
           id="g154"><path
             id="path156"
             style="fill:#f4abb1;fill-opacity:1;fill-rule:nonzero;stroke:none"
             d="M 0,0 C -0.007,0.12 -0.012,0.211 -0.017,0.288 Z" /></g><g
           transform="translate(467.45,248.655)"
           id="g158"><path
             id="path160"
             style="fill:#f4abb1;fill-opacity:1;fill-rule:nonzero;stroke:none"
             d="M 0,0 C 0,0 0.005,-0.079 0.013,-0.222 Z" /></g><g
           transform="translate(463.23,101.265)"
           id="g162"><path
             id="path164"
             style="fill:#f4abb1;fill-opacity:1;fill-rule:nonzero;stroke:none"
             d="m 0,0 c 0,0 2.57,-6.54 0,-9.22 -1.44,-1.5 -15.68,-2.57 -28.6,-3.22 1.17,4.12 1.61,8.81 -2.26,11.46 C -7.67,-1.96 0.72,41.07 3.52,81.03 5.25,48.19 6.82,16.28 7.05,10.84 7.52,-0.71 0,0 0,0" /></g><g
           transform="translate(519.54,342.145)"
           id="g166"><path
             id="path168"
             style="fill:#f4abb1;fill-opacity:1;fill-rule:nonzero;stroke:none"
             d="m 0,0 c 0.47,-18.79 -53.08,-78.72 -57.46,-81.98 l -6,12.89 c 0,0 24.14,20.85 42.83,49.84 C -7.65,0.89 -23.22,36.7 -33.93,56.68 -16.85,40.89 -0.38,15.13 0,0" /></g><g
           transform="translate(473.11,408.415)"
           id="g170"><path
             id="path172"
             style="fill:#f4abb1;fill-opacity:1;fill-rule:nonzero;stroke:none"
             d="m 0,0 c -4.39,-1.33 -11.28,-3.5 -14.89,-5.1 1.22,4.24 -0.92,6.51 -3.06,7.68 C -12.93,5.02 -8,6.48 -5.63,6.4 -0.67,6.24 0.22,3.28 0,0" /></g><g
           transform="translate(444.55,292.935)"
           id="g174"><path
             id="path176"
             style="fill:#f4abb1;fill-opacity:1;fill-rule:nonzero;stroke:none"
             d="m 0,0 c -2.53,3.6 -6.25,8.22 -8.59,11.08 0.87,-0.42 1.32,-0.76 1.32,-0.76 3.03,7.27 7.9,15.74 12.85,23.56 C 2.48,24.26 -1.96,8.15 0,0" /></g><g
           transform="translate(411.52,284.145)"
           id="g178"><path
             id="path180"
             style="fill:#f4abb1;fill-opacity:1;fill-rule:nonzero;stroke:none"
             d="m 0,0 c 4.05,11.24 0.37,17.74 -2.25,20.65 4.08,0.2 7.98,-2.56 7.98,-2.56 0.34,0.18 0.67,0.35 1,0.52 C 5.13,13.99 2.36,6.16 0,0" /></g><g
           transform="translate(371.02,277.935)"
           id="g182"><path
             id="path184"
             style="fill:#f4abb1;fill-opacity:1;fill-rule:nonzero;stroke:none"
             d="m 0,0 c -4.72,3.72 -11.2,6.59 -14.05,17.54 0.12,0.07 0.18,0.1 0.18,0.1 2.16,4.85 4.58,6.65 6.95,6.66 C -7.4,19.32 -7.24,9.06 0,0" /></g><g
           transform="translate(335.62,276.345)"
           id="g186"><path
             id="path188"
             style="fill:#f4abb1;fill-opacity:1;fill-rule:nonzero;stroke:none"
             d="m 0,0 c -0.2,-9.43 -6.27,-79.11 -7.59,-90.24 -1.32,-11.13 -4.73,-26.38 -6.65,-38.2 -1.93,-11.81 -4.32,-40.4 -4.32,-40.4 l -0.01,-0.01 c -0.08,1.96 0,4.12 0.27,6.5 -7.06,-12.06 -20.74,-24.77 -30.01,-32.61 -6.04,30.92 19.49,70.08 27.09,80.97 C -13.29,-102.63 0,0 0,0" /></g><g
           transform="translate(278.29,74.105)"
           id="g190"><path
             id="path192"
             style="fill:#f4abb1;fill-opacity:1;fill-rule:nonzero;stroke:none"
             d="m 0,0 c -0.37,-0.27 -0.57,-0.42 -0.57,-0.42 0,0 0,-6.6 -2.36,-8.48 -1.33,-1.07 -8.77,2.84 -14.96,6.78 5.74,4.07 1.33,12.22 1.33,12.22 C -14.9,9.12 -5.41,3.31 0,0" /></g><g
           transform="translate(329.77,93.485)"
           id="g194"><path
             id="path196"
             style="fill:#f4abb1;fill-opacity:1;fill-rule:nonzero;stroke:none"
             d="M 0,0 C -1.29,-0.11 -2.49,-0.05 -3.63,0.18 -2.51,0.11 -1.29,0.04 0,0" /></g><g
           transform="translate(363.22,84.535)"
           id="g198"><path
             id="path200"
             style="fill:#f4abb1;fill-opacity:1;fill-rule:nonzero;stroke:none"
             d="m 0,0 c -8.27,-0.46 -17.98,-0.27 -22.57,0 -8.25,0.47 -12.49,-0.24 -10.84,8.95 9.18,-0.31 22.37,0.29 36.02,4.43 C -0.09,10.02 -2.55,3.92 0,0" /></g><g
           transform="translate(391.09,106.625)"
           id="g202"><path
             id="path204"
             style="fill:#f4abb1;fill-opacity:1;fill-rule:nonzero;stroke:none"
             d="m 0,0 c -0.41,-6.64 -8.72,-9 -10.83,-9.49 -1.19,0.9 -2.39,2.11 -3.51,3.72 9.91,1.87 9.86,45.34 8.43,77.68 C -2.91,40 0.28,4.5 0,0" /></g><g
           transform="translate(367.9677,148.6413)"
           id="g206"><path
             id="path208"
             style="fill:#f4abb1;fill-opacity:1;fill-rule:nonzero;stroke:none"
             d="m 0,0 c 0,0 0.214,-29.637 -12.213,-35.816 8.999,-8.751 10.307,-8.966 14.045,-4.895 C 5.571,-36.64 4.071,-10.713 0,0" /></g><g
           transform="translate(420.6772,158.8984)"
           id="g210"><path
             id="path212"
             style="fill:#f4abb1;fill-opacity:1;fill-rule:nonzero;stroke:none"
             d="m 0,0 c 0,0 -16.87,-40.94 -5.649,-52.275 4.578,-4.264 12.077,-5.121 12.077,-5.121 0,0 -15.641,13.23 -6.428,57.396" /></g><g
           transform="translate(336.0396,283.369)"
           id="g214"><path
             id="path216"
             style="fill:none;stroke:#ff5467;stroke-width:1;stroke-linecap:butt;stroke-linejoin:miter;stroke-miterlimit:10;stroke-dasharray:none;stroke-opacity:1"
             d="m 0,0 c 0,0 -4.902,-87.284 -10.417,-111.958 -5.514,-24.674 -8.423,-58.586 -8.423,-58.586" /></g><g
           transform="translate(353.3421,144.5198)"
           id="g218"><path
             id="path220"
             style="fill:none;stroke:#ff5467;stroke-width:1;stroke-linecap:butt;stroke-linejoin:miter;stroke-miterlimit:10;stroke-dasharray:none;stroke-opacity:1"
             d="m 0,0 c 2.591,2.572 5.181,5.144 7.772,7.716 1.041,1.033 2.134,2.163 2.388,3.608 0.253,1.444 -0.81,3.194 -2.269,3.046 -0.66,-0.067 -1.223,-0.489 -1.747,-0.896 -10.02,-7.8 -19.498,-16.297 -28.342,-25.408 -1.159,-1.194 -2.379,-2.562 -2.421,-4.226 -0.187,-7.404 9.929,2.198 11.315,3.429 C -8.714,-8.654 -4.356,-4.324 0,0 Z" /></g><g
           transform="translate(453.3153,136.0806)"
           id="g222"><path
             id="path224"
             style="fill:none;stroke:#ff5467;stroke-width:1;stroke-linecap:butt;stroke-linejoin:miter;stroke-miterlimit:10;stroke-dasharray:none;stroke-opacity:1"
             d="M 0,0 C 1.06,-0.819 2.327,-1.668 3.632,-1.367 4.457,0.598 3.741,2.926 2.446,4.618 1.15,6.31 -0.65,7.528 -2.327,8.844 c -7.068,5.548 -12.224,13.131 -18.59,19.473 -1.11,1.106 -2.412,2.241 -3.979,2.27 -5.288,0.097 -0.418,-5.153 0.661,-6.499 2.384,-2.972 4.813,-5.893 7.403,-8.69 C -11.659,9.812 -6.024,4.654 0,0 Z" /></g><g
           transform="translate(406.0568,275.0759)"
           id="g226"><path
             id="path228"
             style="fill:none;stroke:#ff5467;stroke-width:1;stroke-linecap:butt;stroke-linejoin:miter;stroke-miterlimit:10;stroke-dasharray:none;stroke-opacity:1"
             d="M 0,0 C 6.094,7.753 8.913,17.51 11.599,26.999" /></g><g
           transform="translate(436.8633,303.4796)"
           id="g230"><path
             id="path232"
             style="fill:none;stroke:#ff5467;stroke-width:1;stroke-linecap:butt;stroke-linejoin:miter;stroke-miterlimit:10;stroke-dasharray:none;stroke-opacity:1"
             d="M 0,0 C 10.962,-13.894 19.766,-29.487 26,-46.051" /></g><g
           transform="translate(257.2143,86.8873)"
           id="g234"><path
             id="path236"
             style="fill:none;stroke:#ff5467;stroke-width:1;stroke-linecap:butt;stroke-linejoin:miter;stroke-miterlimit:10;stroke-dasharray:none;stroke-opacity:1"
             d="M 0,0 C 0,0 18.148,-10.606 20.505,-13.199" /></g><g
           transform="translate(446.476,395.8811)"
           id="g238"><path
             id="path240"
             style="fill:none;stroke:#ff5467;stroke-width:1;stroke-linecap:butt;stroke-linejoin:miter;stroke-miterlimit:10;stroke-dasharray:none;stroke-opacity:1"
             d="M 0,0 C 0,0 12.185,10.103 26.633,12.492" /></g><g
           transform="translate(467.4526,351.8065)"
           id="g242"><path
             id="path244"
             style="fill:none;stroke:#ff5467;stroke-width:1;stroke-linecap:butt;stroke-linejoin:miter;stroke-miterlimit:10;stroke-dasharray:none;stroke-opacity:1"
             d="M 0,0 C 0,0 1.493,-3.711 9.689,-12.761" /></g><g
           transform="translate(508.7832,354.1465)"
           id="g246"><path
             id="path248"
             style="fill:#ff5467;fill-opacity:1;fill-rule:nonzero;stroke:none"
             d="m 0,0 c 2.317,-4.552 3.283,-9.688 2.818,-14.771 -0.059,-0.641 0.942,-0.637 1,0 C 4.299,-9.513 3.257,-4.199 0.863,0.505 0.572,1.078 -0.292,0.573 0,0" /></g><g
           transform="translate(508.0822,344.7194)"
           id="g250"><path
             id="path252"
             style="fill:#ff5467;fill-opacity:1;fill-rule:nonzero;stroke:none"
             d="m 0,0 c 0.879,-3.281 0.817,-6.732 -0.173,-9.981 -0.188,-0.617 0.777,-0.881 0.964,-0.266 1.04,3.414 1.097,7.066 0.173,10.513 C 0.798,0.887 -0.167,0.623 0,0" /></g><g
           transform="translate(361.9991,264.4981)"
           id="g254"><path
             id="path256"
             style="fill:#ff5467;fill-opacity:1;fill-rule:nonzero;stroke:none"
             d="m 0,0 c 2.284,-8.939 0.107,-18.172 0.072,-27.224 -0.002,-0.644 0.998,-0.644 1,0 0.035,9.153 2.202,18.449 -0.108,27.49 C 0.805,0.889 -0.16,0.625 0,0" /></g><g
           transform="translate(359.0026,243.2531)"
           id="g258"><path
             id="path260"
             style="fill:#ff5467;fill-opacity:1;fill-rule:nonzero;stroke:none"
             d="m 0,0 c -0.083,-3.985 -0.034,-7.971 0.149,-11.953 0.03,-0.641 1.03,-0.644 1,0 C 0.966,-7.971 0.917,-3.985 1,0 1.013,0.644 0.013,0.644 0,0" /></g><g
           transform="translate(416.5891,257.9374)"
           id="g262"><path
             id="path264"
             style="fill:#ff5467;fill-opacity:1;fill-rule:nonzero;stroke:none"
             d="m 0,0 c -0.113,-9.929 0.409,-19.859 1.562,-29.721 0.074,-0.632 1.075,-0.639 1,0 C 1.409,-19.859 0.887,-9.929 1,0 1.007,0.644 0.007,0.644 0,0" /></g><g
           transform="translate(421.4873,232.6665)"
           id="g266"><path
             id="path268"
             style="fill:#ff5467;fill-opacity:1;fill-rule:nonzero;stroke:none"
             d="m 0,0 1.189,-10.075 c 0.075,-0.632 1.076,-0.639 1,0 L 1,0 C 0.925,0.631 -0.075,0.639 0,0" /></g><g
           transform="translate(357.5145,296.4027)"
           id="g270"><path
             id="path272"
             style="fill:none;stroke:#ff5467;stroke-width:1;stroke-linecap:butt;stroke-linejoin:miter;stroke-miterlimit:10;stroke-dasharray:none;stroke-opacity:1"
             d="m 0,0 c -0.495,-3.501 1.506,-6.857 3.745,-9.593 4.184,-5.115 9.509,-9.29 15.474,-12.134" /></g><g
           transform="translate(349.5861,347.7572)"
           id="g274"><path
             id="path276"
             style="fill:#194f97;fill-opacity:1;fill-rule:nonzero;stroke:none"
             d="m 0,0 c 0,0 -4.266,16.048 -2.9,22.878 1.366,6.83 29.875,31.931 33.379,32.955 3.504,1.025 2.992,-6.147 4.187,-5.806 1.195,0.342 10.93,7.684 13.149,6.831 2.219,-0.854 -0.339,-7.343 2.05,-7.514 2.389,-0.17 7.682,5.58 9.902,4.071 2.22,-1.509 -0.791,-7.315 1.397,-6.973 2.189,0.341 4.622,4.268 6.906,3.415 2.283,-0.854 -1.302,-6.489 0.917,-6.147 2.22,0.341 6.148,2.561 7.855,0.683 1.708,-1.879 -3.415,-10.246 -4.269,-14.173 -0.854,-3.927 -4.61,-36.295 -9.05,-36.247 -4.439,0.048 -5.485,30.612 -9.06,33.686 -3.575,3.073 -23.655,7.854 -34.959,0 C 18.445,17.755 19.298,-2.904 6.492,-2.905 -4.949,-3.418 0,0 0,0" /></g><g
           transform="translate(355.7365,332.8986)"
           id="g278"><path
             id="path280"
             style="fill:#e58e67;fill-opacity:1;fill-rule:nonzero;stroke:none"
             d="m 0,0 c 0.428,0.281 -1.025,-10.245 3.927,-14.002 4.952,-3.756 38.437,-12.635 43.209,-8.367 4.773,4.269 3.919,16.905 6.48,19.978 2.562,3.074 4.952,7.145 4.952,16.379 0,9.234 -0.854,44.58 -34.492,34.847 -13.66,-4.439 -13.66,-6.659 -13.66,-6.659 0,0 3.069,-17.043 -10.504,-28.67 -6.571,4.252 -13.914,6.472 -16.134,-3.944 C -18.441,-0.854 -10.928,-7.172 0,0" /></g><g
           transform="translate(373.9255,334.2827)"
           id="g282"><path
             id="path284"
             style="fill:#1a1a1a;fill-opacity:1;fill-rule:nonzero;stroke:none"
             d="m 0,0 c 0.868,-2.896 2.474,-5.441 5.303,-6.734 3.006,-1.373 6.337,-1.202 9.505,-0.567 0.946,0.189 0.546,1.635 -0.398,1.446 C 11.667,-6.404 8.678,-6.617 6.06,-5.439 3.568,-4.317 2.209,-2.144 1.446,0.399 1.17,1.321 -0.278,0.928 0,0" /></g><g
           transform="translate(347.6086,341.2982)"
           id="g286"><path
             id="path288"
             style="fill:#bc5337;fill-opacity:1;fill-rule:nonzero;stroke:none"
             d="M 0,0 C 2.146,-0.95 3.774,-2.85 4.352,-5.13 4.509,-5.753 5.474,-5.489 5.316,-4.864 4.682,-2.359 2.871,-0.184 0.505,0.863 0.258,0.973 -0.032,0.935 -0.179,0.684 -0.304,0.471 -0.248,0.11 0,0" /></g><g
           transform="translate(348.3069,336.406)"
           id="g290"><path
             id="path292"
             style="fill:#bc5337;fill-opacity:1;fill-rule:nonzero;stroke:none"
             d="m 0,0 c 0.082,0.17 0.171,0.335 0.27,0.496 0.049,0.08 0.1,0.159 0.154,0.236 0.024,0.035 0.049,0.07 0.074,0.105 -0.001,-0.002 0.092,0.122 0.045,0.062 0.225,0.291 0.484,0.557 0.763,0.795 0.234,0.2 0.523,0.4 0.848,0.577 0.075,0.041 0.151,0.08 0.227,0.118 0.047,0.022 0.093,0.044 0.14,0.065 -10e-4,0 0.143,0.061 0.069,0.031 C 2.764,2.556 2.942,2.617 3.123,2.669 3.382,2.745 3.545,3.021 3.472,3.284 3.401,3.542 3.117,3.709 2.857,3.634 1.254,3.166 -0.137,2.013 -0.863,0.505 -0.981,0.262 -0.93,-0.035 -0.684,-0.179 -0.465,-0.307 -0.118,-0.244 0,0" /></g><g
           transform="translate(389.6618,358.6709)"
           id="g294"><path
             id="path296"
             style="fill:#bc5337;fill-opacity:1;fill-rule:nonzero;stroke:none"
             d="m 0,0 c 0.155,-3.913 0.318,-7.85 1.106,-11.696 0.387,-1.888 1.109,-3.668 1.545,-5.536 0.345,-1.48 0.187,-3.635 -1.583,-4.113 -0.62,-0.168 -0.357,-1.133 0.266,-0.965 1.515,0.41 2.367,1.896 2.48,3.392 0.152,2.008 -0.887,3.99 -1.376,5.893 C 1.346,-8.774 1.173,-4.365 1,0 0.975,0.641 -0.026,0.645 0,0" /></g><g
           transform="translate(373.4891,364.438)"
           id="g298"><path
             id="path300"
             style="fill:#1a1a1a;fill-opacity:1;fill-rule:nonzero;stroke:none"
             d="M 0,0 C 1.266,2.867 4.542,4.684 7.65,4.057 8.593,3.867 8.996,5.313 8.049,5.504 4.329,6.254 0.252,4.262 -1.295,0.757 -1.459,0.387 -1.403,-0.048 -1.026,-0.269 -0.707,-0.456 -0.164,-0.372 0,0" /></g><g
           transform="translate(397.4009,366.6347)"
           id="g302"><path
             id="path304"
             style="fill:#1a1a1a;fill-opacity:1;fill-rule:nonzero;stroke:none"
             d="m 0,0 c 2.228,0.259 4.488,-0.451 6.118,-2.005 0.698,-0.667 1.761,0.393 1.06,1.06 C 5.285,0.861 2.608,1.803 0,1.5 -0.402,1.453 -0.75,1.189 -0.75,0.75 -0.75,0.381 -0.405,-0.047 0,0" /></g><g
           transform="translate(380.0652,351.3953)"
           id="g306"><path
             id="path308"
             style="fill:#000000;fill-opacity:1;fill-rule:nonzero;stroke:none"
             d="m 0,0 c 0,-1.822 -0.918,-3.3 -2.05,-3.3 -1.132,0 -2.05,1.478 -2.05,3.3 0,1.822 0.918,3.3 2.05,3.3 C -0.918,3.3 0,1.822 0,0" /></g><g
           transform="translate(399.4509,351.8065)"
           id="g310"><path
             id="path312"
             style="fill:#000000;fill-opacity:1;fill-rule:nonzero;stroke:none"
             d="m 0,0 c 0,-1.822 -0.918,-3.3 -2.05,-3.3 -1.132,0 -2.05,1.478 -2.05,3.3 0,1.822 0.918,3.3 2.05,3.3 C -0.918,3.3 0,1.822 0,0" /></g><g
           transform="translate(413.36,338.285)"
           id="g314"><path
             id="path316"
             style="fill:#e2764b;fill-opacity:1;fill-rule:nonzero;stroke:none"
             d="m 0,0 c -2.91,-4.31 -6.7,-8.5 -10.49,-8.65 2.43,-0.23 4.54,0.03 6.35,0.69 z" /></g><g
           transform="translate(566.8817,88.0658)"
           id="g318"><path
             id="path320"
             style="fill:#db1e1b;fill-opacity:1;fill-rule:nonzero;stroke:none"
             d="m 0,0 1.128,-11.312 c 0,0 46.079,-13.908 97.63,1.781 C 95.612,-1.08 95.736,5.843 95.736,5.843 95.736,5.843 26.823,-11.725 0,0" /></g><g
           transform="translate(569.2586,212.6733)"
           id="g322"><path
             id="path324"
             style="fill:#ff5467;fill-opacity:1;fill-rule:nonzero;stroke:none"
             d="m 0,0 c -0.388,0.315 -11.075,8.87 -7.594,21.285 3.48,12.415 11.131,14.333 13.951,25.478 2.82,11.145 2.559,18.581 0,35.827 -2.56,17.245 -4.458,29.428 14.37,48.414 18.827,18.986 54.426,22.942 73.887,-2.215 5.696,1.899 14.24,1.741 13.765,-20.885 -0.475,-22.625 0.949,-42.244 8.386,-52.844 7.436,-10.601 16.138,-30.853 11.866,-43.51 C 124.359,-1.108 36.232,-29.428 0,0" /></g><g
           transform="translate(581.44,231.9299)"
           id="g326"><path
             id="path328"
             style="fill:#db1e1b;fill-opacity:1;fill-rule:nonzero;stroke:none"
             d="M 0,0 C 0,0 23.076,24.98 19.063,50.794 15.051,76.609 71.173,79.384 78.274,69.325 85.376,59.265 79.66,23.963 94.42,5.411 109.18,-13.141 9.531,-19.277 0,0" /></g><g
           transform="translate(647.6,254.605)"
           id="g330"><path
             id="path332"
             style="fill:#ffcdab;fill-opacity:1;fill-rule:nonzero;stroke:none"
             d="m 0,0 c -1.32,-11.77 -11.13,-21.66 -21.9,-22.1 -10.77,-0.43 -21.21,8.65 -23.32,20.28 4.11,-0.31 7.98,2.89 9.7,7.01 0.02,0.04 0.04,0.09 0.06,0.13 2.16,5.29 -1.31,13.67 3.76,16.81 1.96,1.21 22,5.25 21.98,5.01 -0.44,-5.52 -0.33,-11.11 0.34,-16.61 0.1,-0.77 0.21,-1.55 0.35,-2.31 C -8.66,6.14 -8.06,4.12 -6.9,2.46 -5.3,0.19 -2.37,-1.19 0,0" /></g><g
           transform="translate(638.57,262.825)"
           id="g334"><path
             id="path336"
             style="fill:#f7c39f;fill-opacity:1;fill-rule:nonzero;stroke:none"
             d="m 0,0 c -6.8,-3.7 -18.6,-8.54 -26.49,-3.03 0.02,0.04 0.04,0.09 0.06,0.13 2.16,5.29 -1.31,13.67 3.76,16.81 1.96,1.21 22,5.25 21.98,5.01 C -1.13,13.4 -1.02,7.81 -0.35,2.31 -0.25,1.54 -0.14,0.76 0,0" /></g><g
           transform="translate(575.62,158.895)"
           id="g338"><path
             id="path340"
             style="fill:#ffcdab;fill-opacity:1;fill-rule:nonzero;stroke:none"
             d="m 0,0 c -1.29,-2.6 -2.85,-5.77 -4.79,-8.94 -3.02,-4.94 -6.96,-9.92 -12.26,-12.88 -3.87,-2.18 -8.48,-3.26 -13.97,-2.46 -20.07,2.93 -36.05,66.95 -39.46,81.65 -0.01,0.01 -0.01,0.02 -0.01,0.03 -0.22,0.59 -3.34,8.98 -4.89,11.45 -0.21,0.33 -0.39,0.56 -0.53,0.64 -1.23,0.71 -4.19,-0.32 -7.08,4.69 -2.89,5.02 -5.08,12.38 -7.25,15.32 -2.17,2.95 -5.66,6.12 -5.21,8.83 0.46,2.7 2.63,1.87 4.12,0.71 1.49,-1.17 7.42,-9.11 9.79,-11.1 2.37,-1.99 -9.29,16.73 -9.05,18.54 0.16,1.22 0.59,3.81 3.12,5.7 1.22,0.9 2.92,1.64 5.32,1.98 3.13,-3.61 9.78,-19.85 10.8,-20.55 0.03,-0.03 0.06,-0.04 0.08,-0.03 0.02,0.01 0.04,0.04 0.04,0.09 0.2,1.5 -6.42,20.43 -5.01,21.52 1.46,1.13 5.38,0.88 6.35,-1.53 0.96,-2.42 5.85,-21.11 5.85,-21.11 0,0 0.25,11.19 2.76,11.67 2.51,0.48 4.84,0.88 4.11,-6.61 -0.74,-7.5 1.66,-14.99 -0.94,-19.14 -2.6,-4.15 -2.84,-3.82 -0.7,-7.69 2.07,-3.75 3.96,-9.03 4.07,-9.35 0,-0.01 0.01,-0.01 0.01,-0.02 20.16,-34.65 27.29,-55.06 27.29,-55.06 l 1.15,1.85 3.32,5.31 C -22.97,13.51 -5.96,9.63 0,0" /></g><g
           transform="translate(499.3752,274.085)"
           id="g342"><path
             id="path344"
             style="fill:none;stroke:#e89879;stroke-width:1;stroke-linecap:round;stroke-linejoin:round;stroke-miterlimit:10;stroke-dasharray:none;stroke-opacity:1"
             d="M 0,0 C 1.46,1.13 5.38,0.88 6.35,-1.53 7.31,-3.95 12.2,-22.64 12.2,-22.64" /></g><g
           transform="translate(493.4652,273.055)"
           id="g346"><path
             id="path348"
             style="fill:none;stroke:#e89879;stroke-width:1;stroke-linecap:round;stroke-linejoin:round;stroke-miterlimit:10;stroke-dasharray:none;stroke-opacity:1"
             d="M 0,0 C 3.23,-3.72 10.2,-20.88 10.88,-20.58" /></g><g
           transform="translate(480.1652,257.225)"
           id="g350"><path
             id="path352"
             style="fill:none;stroke:#e89879;stroke-width:1;stroke-linecap:round;stroke-linejoin:round;stroke-miterlimit:10;stroke-dasharray:none;stroke-opacity:1"
             d="m 0,0 c 0.46,2.7 2.63,1.87 4.12,0.71 1.49,-1.17 7.42,-9.11 9.79,-11.1" /></g><g
           transform="translate(505.154,235.2386)"
           id="g354"><path
             id="path356"
             style="fill:none;stroke:#e89879;stroke-width:1;stroke-linecap:round;stroke-linejoin:round;stroke-miterlimit:10;stroke-dasharray:none;stroke-opacity:1"
             d="M 0,0 C 0,0 -0.876,9.354 6.206,15.308" /></g><g
           transform="translate(492.0643,243.8074)"
           id="g358"><path
             id="path360"
             style="fill:none;stroke:#e89879;stroke-width:1;stroke-linecap:round;stroke-linejoin:round;stroke-miterlimit:10;stroke-dasharray:none;stroke-opacity:1"
             d="M 0,0 C 0,0 4.592,5.433 14.362,9.699" /></g><g
           transform="translate(488.1533,271.0732)"
           id="g362"><path
             id="path364"
             style="fill:none;stroke:#e89879;stroke-width:1;stroke-linecap:round;stroke-linejoin:round;stroke-miterlimit:10;stroke-dasharray:none;stroke-opacity:1"
             d="M 0,0 11.059,-21.417" /></g><g
           transform="translate(558.57,137.075)"
           id="g366"><path
             id="path368"
             style="fill:#f7c39f;fill-opacity:1;fill-rule:nonzero;stroke:none"
             d="m 0,0 c -3.87,-2.18 -8.48,-3.26 -13.97,-2.46 -20.07,2.93 -36.05,66.95 -39.46,81.65 -0.01,0.01 -0.01,0.02 -0.01,0.03 -0.22,0.59 -3.34,8.98 -4.89,11.45 1.91,-0.16 3.69,-0.07 4.88,0.47 C -52.19,84.44 -29.22,0.58 0,0" /></g><g
           transform="translate(575.62,158.895)"
           id="g370"><path
             id="path372"
             style="fill:#f7c39f;fill-opacity:1;fill-rule:nonzero;stroke:none"
             d="m 0,0 c -1.29,-2.6 -2.85,-5.77 -4.79,-8.94 -9.93,0.33 -18.49,12.36 -21.5,17.14 l 3.32,5.31 C -22.97,13.51 -5.96,9.63 0,0" /></g><g
           transform="translate(736.72,171.515)"
           id="g374"><path
             id="path376"
             style="fill:#ffcdab;fill-opacity:1;fill-rule:nonzero;stroke:none"
             d="m 0,0 c -0.27,-12.34 -34.8,-42.54 -48.04,-54.57 l -12.82,8.64 c 0,0 0.42,0.64 1.15,1.75 3.46,5.24 13.87,20.99 20.03,29.84 7.46,10.71 11.93,12.25 11.93,12.25 l -0.37,0.45 -1.18,1.42 -2.92,3.5 14.09,14.61 c 0,0 0.01,0.01 0.03,0.02 l 2.28,2.37 c 0,0 0.35,-0.23 0.94,-0.67 1.1,-0.82 3.07,-2.37 5.25,-4.52 C -5.97,11.5 -1.72,6.24 0,0" /></g><g
           transform="translate(716.09,171.295)"
           id="g378"><path
             id="path380"
             style="fill:#f7c39f;fill-opacity:1;fill-rule:nonzero;stroke:none"
             d="m 0,0 c -5.63,-4.74 -36.59,-45.71 -36.59,-45.71 l -2.49,1.75 c 3.46,5.24 13.87,20.99 20.03,29.84 7.46,10.71 11.93,12.25 11.93,12.25 l -0.37,0.45 C -5.31,-0.77 -2.8,-0.23 0,0" /></g><g
           transform="translate(727.09,186.605)"
           id="g382"><path
             id="path384"
             style="fill:#f7c39f;fill-opacity:1;fill-rule:nonzero;stroke:none"
             d="m 0,0 c -4.69,-8.66 -14.74,-13.42 -19.67,-15.31 l -2.92,3.5 L -8.5,2.8 c 0,0 0.01,0.01 0.03,0.02 0.19,0.17 1.41,1.15 3.22,1.7 C -4.15,3.7 -2.18,2.15 0,0" /></g><g
           transform="translate(552.6459,153.016)"
           id="g386"><path
             id="path388"
             style="fill:none;stroke:#e8a685;stroke-width:1;stroke-linecap:round;stroke-linejoin:round;stroke-miterlimit:10;stroke-dasharray:none;stroke-opacity:1"
             d="M 0,0 C 0,0 -0.36,2.098 -4.475,12.232" /></g><g
           transform="translate(524.7314,215.0972)"
           id="g390"><path
             id="path392"
             style="fill:#db1e1b;fill-opacity:1;fill-rule:nonzero;stroke:none"
             d="M 0,0 C 0.783,0.695 1.581,1.508 1.718,2.546 1.884,3.81 1.028,4.956 0.221,5.942 0,6.212 -0.231,6.49 -0.547,6.637 -1.453,7.057 -2.411,6.23 -3.108,5.515 -6.48,2.054 -10.859,-0.414 -15.566,-1.506 c -1.402,-0.326 -2.847,-0.537 -4.161,-1.125 -1.313,-0.588 -2.515,-1.642 -2.846,-3.043 C -24.557,-14.088 -2.325,-2.063 0,0" /></g><g
           transform="translate(524.2989,201.8449)"
           id="g394"><path
             id="path396"
             style="fill:#db1e1b;fill-opacity:1;fill-rule:nonzero;stroke:none"
             d="M 0,0 C 2.386,1.219 4.79,2.556 6.536,4.589 6.919,5.034 7.286,5.578 7.205,6.16 7.154,6.523 6.934,6.839 6.702,7.122 5.988,7.992 5.089,8.709 4.082,9.211 -1.181,5.54 -6.993,2.657 -13.101,0.691 c -1.18,-0.38 -2.394,-0.737 -3.413,-1.444 -3.838,-2.66 -1.002,-6.126 2.711,-5.318 C -9.133,-5.055 -4.232,-2.163 0,0" /></g><g
           transform="translate(632.3874,335.4502)"
           id="g398"><path
             id="path400"
             style="fill:#ffcdab;fill-opacity:1;fill-rule:nonzero;stroke:none"
             d="m 0,0 c 0,0 -28.321,7.753 -34.491,-6.645 -6.171,-14.398 -9.177,-39.396 -7.911,-41.928 1.265,-2.531 13.606,-17.562 29.745,-17.72 16.138,-0.158 26.264,17.72 26.264,17.72 0,0 13.132,-2.373 17.404,7.436 4.272,9.81 -1.108,23.417 -12.5,15.348 C 7.911,-28.637 -2.215,-11.55 0,0" /></g><g
           transform="translate(608.3377,309.1447)"
           id="g402"><path
             id="path404"
             style="fill:#e89879;fill-opacity:1;fill-rule:nonzero;stroke:none"
             d="m 0,0 c -1.064,-2.187 -2.981,-3.722 -4.652,-5.424 -0.384,-0.391 -0.841,-0.807 -0.999,-1.351 -0.168,-0.58 0.121,-1.085 0.432,-1.551 0.575,-0.863 1.307,-1.766 2.4,-1.915 0.63,-0.086 0.902,0.878 0.266,0.965 -0.934,0.127 -1.558,0.992 -2,1.759 -0.316,0.547 0.129,0.894 0.5,1.275 0.36,0.371 0.731,0.731 1.102,1.091 1.445,1.396 2.924,2.815 3.814,4.646 C 1.144,0.072 0.282,0.579 0,0" /></g><g
           transform="translate(654.6765,301.608)"
           id="g406"><path
             id="path408"
             style="fill:#e89879;fill-opacity:1;fill-rule:nonzero;stroke:none"
             d="m 0,0 c -1.58,-1.344 -2.969,-2.897 -4.145,-4.605 -0.153,-0.222 -0.041,-0.555 0.18,-0.684 0.248,-0.145 0.53,-0.044 0.684,0.18 1.127,1.637 2.474,3.114 3.988,4.402 0.206,0.175 0.18,0.527 0,0.707 C 0.503,0.204 0.206,0.175 0,0" /></g><g
           transform="translate(652.877,298.6595)"
           id="g410"><path
             id="path412"
             style="fill:#e89879;fill-opacity:1;fill-rule:nonzero;stroke:none"
             d="M 0,0 C 0.264,-0.132 0.517,-0.284 0.756,-0.457 0.788,-0.48 0.82,-0.505 0.852,-0.528 0.757,-0.459 0.865,-0.539 0.878,-0.549 0.93,-0.591 0.982,-0.634 1.032,-0.678 c 0.117,-0.1 0.229,-0.206 0.337,-0.316 0.103,-0.105 0.202,-0.215 0.296,-0.328 0.022,-0.026 0.043,-0.052 0.064,-0.078 0.01,-0.012 0.089,-0.121 0.02,-0.025 0.043,-0.06 0.088,-0.119 0.13,-0.179 0.172,-0.248 0.322,-0.51 0.451,-0.782 0.113,-0.237 0.471,-0.317 0.685,-0.18 0.243,0.158 0.299,0.431 0.179,0.685 C 2.637,-0.707 1.667,0.281 0.505,0.863 0.271,0.981 -0.048,0.933 -0.179,0.684 -0.299,0.457 -0.25,0.125 0,0" /></g><g
           transform="translate(596.9847,317.2193)"
           id="g414"><path
             id="path416"
             style="fill:#1a1a1a;fill-opacity:1;fill-rule:nonzero;stroke:none"
             d="m 0,0 c 1.907,1.662 5.067,1.758 7.051,0.169 0.316,-0.253 0.752,-0.309 1.061,0 0.262,0.262 0.317,0.806 0,1.06 C 5.458,3.355 1.512,3.303 -1.061,1.061 -1.79,0.425 -0.725,-0.632 0,0" /></g><g
           transform="translate(618.7932,318.5185)"
           id="g418"><path
             id="path420"
             style="fill:#1a1a1a;fill-opacity:1;fill-rule:nonzero;stroke:none"
             d="m 0,0 c 2.45,1.941 6.011,1.7 8.241,-0.447 0.696,-0.67 1.758,0.389 1.061,1.06 C 7.943,1.921 6.166,2.717 4.281,2.828 2.336,2.943 0.452,2.259 -1.061,1.061 -1.378,0.809 -1.324,0.263 -1.061,0 -0.747,-0.314 -0.319,-0.252 0,0" /></g><g
           transform="translate(618.9696,309.7029)"
           id="g422"><path
             id="path424"
             style="fill:#1a1a1a;fill-opacity:1;fill-rule:nonzero;stroke:none"
             d="m 0,0 c 2.77,1.493 6.4,0.629 8.308,-1.831 0.249,-0.32 0.8,-0.261 1.061,0 0.316,0.316 0.249,0.739 0,1.06 C 7.044,2.226 2.553,3.079 -0.757,1.295 -1.607,0.837 -0.851,-0.458 0,0" /></g><g
           transform="translate(597.1387,308.1606)"
           id="g426"><path
             id="path428"
             style="fill:#1a1a1a;fill-opacity:1;fill-rule:nonzero;stroke:none"
             d="M 0,0 C 1.663,2.204 4.795,2.535 6.999,0.976 7.329,0.742 7.833,0.917 8.025,1.245 8.245,1.621 8.087,2.036 7.756,2.271 6.32,3.287 4.512,3.665 2.785,3.357 1.135,3.063 -0.297,2.08 -1.295,0.757 -1.539,0.434 -1.347,-0.082 -1.026,-0.269 -0.642,-0.494 -0.245,-0.324 0,0" /></g><g
           transform="translate(627.9752,297.105)"
           id="g430"><path
             id="path432"
             style="fill:#fefefe;fill-opacity:1;fill-rule:nonzero;stroke:none"
             d="m 0,0 c -3.98,-5.74 -9.66,-10.3 -16.13,-12.92 -1.35,0.42 -2.68,0.93 -3.68,1.76 -1.78,1.47 -2.48,4.46 -0.82,6.07 0.91,0.89 2.26,1.12 3.49,1.45 3.05,0.8 5.88,2.42 8.12,4.64 1.04,1.02 1.97,2.19 3.23,2.93 1.25,0.75 2.98,0.96 4.11,0.03 C -1.22,3.57 -0.9,3.04 -0.65,2.48 -0.3,1.69 -0.09,0.85 0,0" /></g><g
           transform="translate(627.0552,291.675)"
           id="g434"><path
             id="path436"
             style="fill:#000000;fill-opacity:1;fill-rule:nonzero;stroke:none"
             d="m 0,0 c -1.12,-2.47 -3.03,-4.52 -5.18,-6.18 -2.05,-1.57 -4.63,-2.9 -7.22,-2.11 -0.87,0.27 -1.84,0.51 -2.81,0.8 6.47,2.62 12.15,7.18 16.13,12.92 C 1.12,3.6 0.76,1.69 0,0" /></g><g
           id="g438"><g
             id="g440" /><g
             id="g452"><g
               style="opacity:0.36000103"
               id="g450"
               clip-path="url(#clipPath444)"><g
                 id="g448"
                 transform="translate(571.82,151.635)"><path
                   id="path446"
                   style="fill:#3a8ec1;fill-opacity:1;fill-rule:nonzero;stroke:none"
                   d="M 0,0 C 0.01,0.05 0.02,0.1 0.03,0.16 0.01,0.05 0,0 0,0" /></g></g></g></g><g
           id="g454"><g
             id="g456" /><g
             id="g468"><g
               style="opacity:0.36000103"
               id="g466"
               clip-path="url(#clipPath460)"><g
                 id="g464"
                 transform="translate(571.85,151.805)"><path
                   id="path462"
                   style="fill:#3a8ec1;fill-opacity:1;fill-rule:nonzero;stroke:none"
                   d="M 0,0 C 0.22,1.15 0.43,2.21 0.65,3.17 0.31,1.49 0.09,0.4 0,0" /></g></g></g></g><g
           transform="translate(679.5,246.175)"
           id="g470"><path
             id="path472"
             style="fill:#194f97;fill-opacity:1;fill-rule:nonzero;stroke:none"
             d="m 0,0 c -0.71,-0.69 -1.41,-1.36 -2.11,-2.01 -46.23,-43.13 -88.65,-17.09 -103.34,-5.41 0.97,1.79 1.9,3.32 2.76,4.5 9.85,13.56 29.83,9.7 29.83,9.7 0,0 1.79,-13.42 16.71,-15.68 14.92,-2.25 21.78,17.17 21.78,17.17 0,0 16.94,-1.14 27.96,-5.04 1.56,-0.55 3,-1.16 4.26,-1.82 C -1.51,1.07 -0.79,0.6 0,0" /></g><g
           transform="translate(724.19,191.795)"
           id="g474"><path
             id="path476"
             style="fill:#194f97;fill-opacity:1;fill-rule:nonzero;stroke:none"
             d="m 0,0 c -3.88,-15.81 -25.96,-21.48 -25.96,-21.48 0,0 -1.42,1.21 -3.66,3.17 -1.5,1.31 -3.37,2.95 -5.42,4.79 4.02,2.36 9.16,5.79 14.2,10.35 4.66,4.19 9.22,9.35 12.74,15.49 C -4.23,7 -1.28,2.55 0,0" /></g><g
           transform="translate(716.09,204.1151)"
           id="g478"><path
             id="path480"
             style="fill:#5ba2d6;fill-opacity:1;fill-rule:nonzero;stroke:none"
             d="m 0,0 c -3.52,-6.14 -8.08,-11.3 -12.74,-15.49 -5.04,-4.56 -10.18,-7.99 -14.2,-10.35 -3.72,3.34 -8.04,7.32 -11.88,11.13 5.61,3.31 13.9,9.54 21.62,20.5 1.96,2.76 3.87,5.82 5.69,9.21 C -7.32,9.79 -3.31,4.57 0,0" /></g><g
           transform="translate(704.58,219.1151)"
           id="g482"><path
             id="path484"
             style="fill:#194f97;fill-opacity:1;fill-rule:nonzero;stroke:none"
             d="m 0,0 c -1.82,-3.39 -3.73,-6.45 -5.69,-9.21 -7.72,-10.96 -16.01,-17.19 -21.62,-20.5 h -0.01 c -2.22,2.19 -4.26,4.31 -5.94,6.21 l -0.01,0.01 c -0.56,0.64 -1.08,1.26 -1.55,1.84 -0.16,0.21 -0.32,0.4 -0.47,0.6 -0.4,0.69 -0.77,1.4 -1.12,2.12 -1.17,2.43 -2.02,4.89 -2.57,6.7 0.06,0.04 0.13,0.08 0.2,0.13 2.94,1.82 7.22,5.18 12.51,11.23 0.21,0.23 0.41,0.46 0.61,0.7 0.13,0.15 0.26,0.31 0.39,0.46 0.54,0.63 1.08,1.29 1.64,1.98 0.95,1.18 1.92,2.43 2.91,3.77 0.31,0.4 0.61,0.82 0.92,1.24 0.9,1.24 1.81,2.54 2.75,3.92 v 0.01 c 1.06,1.56 2.15,3.22 3.25,4.98 C -9.4,11.38 -4.58,5.7 0,0" /></g><g
           transform="translate(690.78,235.305)"
           id="g486"><path
             id="path488"
             style="fill:#5ba2d6;fill-opacity:1;fill-rule:nonzero;stroke:none"
             d="M 0,0 C -1.1,-1.76 -2.19,-3.42 -3.25,-4.98 V -4.99 C -4.19,-6.37 -5.1,-7.67 -6,-8.91 c -0.31,-0.42 -0.61,-0.84 -0.92,-1.24 -0.99,-1.34 -1.96,-2.59 -2.91,-3.77 -0.56,-0.69 -1.1,-1.35 -1.64,-1.98 -0.13,-0.15 -0.26,-0.31 -0.39,-0.46 -0.2,-0.24 -0.4,-0.47 -0.61,-0.7 -5.29,-6.05 -9.57,-9.41 -12.51,-11.23 -0.07,-0.05 -0.14,-0.09 -0.2,-0.13 0.55,-1.81 1.4,-4.27 2.57,-6.7 -0.94,-0.31 -1.88,-0.62 -2.81,-0.91 -0.7,-0.22 -1.39,-0.43 -2.08,-0.63 -0.53,-0.16 -1.07,-0.32 -1.6,-0.47 -1.63,-0.48 -3.24,-0.91 -4.82,-1.32 -0.37,-0.09 -0.73,-0.19 -1.1,-0.27 -0.78,-0.2 -1.55,-0.39 -2.32,-0.56 -0.87,-0.21 -1.73,-0.4 -2.58,-0.58 -2,-0.43 -3.96,-0.81 -5.88,-1.14 -0.85,-0.15 -1.69,-0.28 -2.53,-0.41 -0.11,-0.02 -0.22,-0.04 -0.33,-0.05 -0.82,-0.13 -1.64,-0.25 -2.45,-0.35 -0.63,-0.09 -1.27,-0.17 -1.89,-0.24 -0.4,-0.05 -0.8,-0.1 -1.2,-0.14 -1.36,-0.15 -2.69,-0.28 -4,-0.38 -0.39,-0.03 -0.78,-0.06 -1.17,-0.09 -0.05,-0.01 -0.09,-0.01 -0.13,-0.01 -0.57,-0.04 -1.14,-0.08 -1.7,-0.11 -0.72,-0.04 -1.43,-0.07 -2.13,-0.1 -0.09,-0.01 -0.18,-0.01 -0.26,-0.01 -0.75,-0.03 -1.48,-0.05 -2.21,-0.07 -22.83,-0.45 -37.91,5.62 -43.89,8.59 -0.02,0.01 -0.04,0.02 -0.05,0.03 0.06,0.42 0.13,0.83 0.19,1.24 -0.12,0.01 -0.24,0.01 -0.35,0.03 -0.63,0.03 -1.24,0.1 -1.83,0.19 h -0.02 c -8.06,1.16 -13.33,6.18 -16.37,10.28 v 0.01 c 3.87,10.04 7.94,19.72 11.39,26.04 14.69,-11.68 57.11,-37.72 103.34,5.41 0.7,0.65 1.4,1.32 2.11,2.01 C -8.33,8.65 -4.37,4.75 0,0" /></g><g
           transform="translate(581.23,202.205)"
           id="g490"><path
             id="path492"
             style="fill:#194f97;fill-opacity:1;fill-rule:nonzero;stroke:none"
             d="m 0,0 c -0.06,-0.41 -0.13,-0.82 -0.19,-1.24 -1,-6.52 -2.24,-14.37 -3.56,-21.95 h -0.01 c -10.87,-1.2 -18.51,5.34 -23.06,11.18 2.39,6.82 5.26,14.77 8.25,22.51 3.04,-4.1 8.31,-9.12 16.37,-10.28 h 0.02 C -1.48,0.11 -0.75,0.04 0,0" /></g><g
           transform="translate(577.47,179.015)"
           id="g494"><path
             id="path496"
             style="fill:#5ba2d6;fill-opacity:1;fill-rule:nonzero;stroke:none"
             d="m 0,0 c -0.15,-0.87 -0.3,-1.74 -0.46,-2.6 -0.26,-1.44 -0.52,-2.87 -0.78,-4.27 -0.17,-0.9 -0.34,-1.78 -0.51,-2.65 -0.02,-0.1 -0.04,-0.2 -0.06,-0.3 -0.15,-0.76 -0.3,-1.52 -0.44,-2.26 -0.12,-0.59 -0.24,-1.18 -0.36,-1.76 -0.01,-0.03 -0.01,-0.06 -0.02,-0.09 -0.25,-1.14 -0.47,-2.23 -0.71,-3.28 0,-0.03 -0.01,-0.05 -0.02,-0.08 -0.22,-0.98 -0.44,-1.92 -0.66,-2.82 -0.05,0 -0.11,0.01 -0.16,0.01 -19.5,1.48 -25.12,12.9 -25.12,12.9 0,0 0.19,0.58 0.53,1.63 0.94,2.82 3.02,9.06 5.71,16.75 3.5,-4.5 8.84,-9.41 16.07,-10.88 2.03,-0.42 4.21,-0.56 6.54,-0.34 0.01,-0.01 0.01,0 0.02,0 0.14,0.01 0.29,0.02 0.43,0.04" /></g><g
           transform="translate(666.8,180.375)"
           id="g498"><path
             id="path500"
             style="fill:#194f97;fill-opacity:1;fill-rule:nonzero;stroke:none"
             d="m 0,0 c -0.63,-8.69 -0.95,-19.23 -1.16,-30.16 -2.5,-0.99 -4.95,-1.9 -7.34,-2.75 -47.63,-16.9 -75.67,-7.46 -87.39,-1.11 0.3,1.9 0.61,3.68 0.91,5.28 0.01,0.05 0.02,0.1 0.03,0.16 v 0.01 c 0.22,1.15 0.43,2.21 0.65,3.17 0.03,0.16 0.07,0.32 0.1,0.48 0.14,0.62 0.28,1.2 0.42,1.72 0.02,0.06 0.03,0.12 0.05,0.18 0.03,0.14 0.07,0.28 0.11,0.42 0.12,0.41 0.24,0.79 0.35,1.12 -0.03,0 -0.05,0 -0.08,0.01 0.22,0.9 0.44,1.84 0.66,2.82 0.01,0.03 0.02,0.05 0.02,0.08 0.24,1.05 0.46,2.14 0.71,3.28 0.01,0.03 0.01,0.06 0.02,0.09 0.12,0.58 0.24,1.17 0.36,1.76 0.14,0.74 0.29,1.5 0.44,2.26 0.02,0.1 0.04,0.2 0.06,0.3 0.17,0.87 0.34,1.75 0.51,2.65 0.26,1.4 0.52,2.83 0.78,4.27 12.06,-3.6 42.98,-9.79 86.81,3.06 C -2,-0.61 -1,-0.31 0,0" /></g><g
           transform="translate(665.64,150.215)"
           id="g502"><path
             id="path504"
             style="fill:#5ba2d6;fill-opacity:1;fill-rule:nonzero;stroke:none"
             d="m 0,0 c -0.14,-6.59 -0.24,-13.32 -0.34,-19.88 -5.04,-1.8 -9.9,-3.35 -14.59,-4.67 -43.43,-12.24 -71.54,-4.86 -82.7,-0.52 0.92,7.55 1.91,15.05 2.9,21.21 11.72,-6.35 39.76,-15.79 87.39,1.11 C -4.95,-1.9 -2.5,-0.99 0,0" /></g><g
           transform="translate(665.3,130.335)"
           id="g506"><path
             id="path508"
             style="fill:#194f97;fill-opacity:1;fill-rule:nonzero;stroke:none"
             d="m 0,0 c -0.15,-8.66 -0.3,-17.02 -0.57,-24.33 -26.77,-8.49 -49.9,-9.56 -67.55,-8.04 -14.64,1.27 -25.5,4.31 -31.54,6.4 0.66,6.18 1.47,13.5 2.37,20.78 11.16,-4.34 39.27,-11.72 82.7,0.52 C -9.9,-3.35 -5.04,-1.8 0,0" /></g><g
           transform="translate(664.73,106.005)"
           id="g510"><path
             id="path512"
             style="fill:#5ba2d6;fill-opacity:1;fill-rule:nonzero;stroke:none"
             d="m 0,0 c -0.2,-5.24 -0.45,-9.95 -0.81,-13.85 -39.97,-20.58 -99.94,-4.09 -99.94,-4.09 0,0 0.16,1.67 0.44,4.49 0.29,2.89 0.71,7.01 1.22,11.81 6.04,-2.09 16.9,-5.13 31.54,-6.4 C -49.9,-9.56 -26.77,-8.49 0,0" /></g><g
           transform="translate(669.29,198.065)"
           id="g514"><path
             id="path516"
             style="fill:#5ba2d6;fill-opacity:1;fill-rule:nonzero;stroke:none"
             d="m 0,0 c -1.13,-3.73 -1.9,-9.75 -2.45,-17.15 -0.01,-0.18 -0.03,-0.36 -0.04,-0.54 -1,-0.31 -2,-0.61 -2.98,-0.9 -43.83,-12.85 -74.75,-6.66 -86.81,-3.06 0.16,0.86 0.31,1.73 0.46,2.6 h 0.01 c 1.32,7.58 2.56,15.43 3.56,21.95 0.01,-0.01 0.03,-0.02 0.05,-0.03 9,-4.47 38.61,-15.96 84.27,-1.66 C -3,1.5 -2.06,1.81 -1.12,2.12 -0.77,1.4 -0.4,0.69 0,0" /></g><g
           transform="translate(573.02,157.175)"
           id="g518"><path
             id="path520"
             style="fill:none;stroke:#000000;stroke-width:1;stroke-linecap:butt;stroke-linejoin:miter;stroke-miterlimit:10;stroke-dasharray:none;stroke-opacity:1"
             d="M 0,0 C 0.02,0.06 0.03,0.12 0.05,0.18 0.08,0.32 0.12,0.46 0.16,0.6 0.24,0.97 0.34,1.35 0.43,1.73" /></g><g
           transform="translate(583.37,216.265)"
           id="g522"><path
             id="path524"
             style="fill:none;stroke:#033b6d;stroke-width:1;stroke-linecap:round;stroke-linejoin:round;stroke-miterlimit:10;stroke-dasharray:none;stroke-opacity:1"
             d="M 0,0 C -0.508,-1.367 -4.246,-25.137 -9.877,-58.225" /></g><g
           transform="translate(669.8603,197.2421)"
           id="g526"><path
             id="path528"
             style="fill:none;stroke:#033b6d;stroke-width:1;stroke-linecap:round;stroke-linejoin:round;stroke-miterlimit:10;stroke-dasharray:none;stroke-opacity:1"
             d="M 0,0 C -3.379,7.463 -5,12.423 -5,12.423" /></g><g
           id="g530"><g
             id="g532" /><g
             id="g544"><g
               style="opacity:0.13999903"
               id="g542"
               clip-path="url(#clipPath536)"><g
                 id="g540"
                 transform="translate(671.31,195.625)"><path
                   id="path538"
                   style="fill:#3a8ec1;fill-opacity:1;fill-rule:nonzero;stroke:none"
                   d="m 0,0 c -0.56,0.64 -1.08,1.26 -1.55,1.84 -0.16,0.21 -0.32,0.4 -0.47,0.6 -1.13,-3.73 -1.9,-9.75 -2.45,-17.15 -0.01,-0.18 -0.03,-0.36 -0.04,-0.54 -0.63,-8.69 -0.95,-19.23 -1.16,-30.16 -0.14,-6.59 -0.24,-13.32 -0.34,-19.88 -0.15,-8.66 -0.3,-17.02 -0.57,-24.33 -0.2,-5.24 -0.45,-9.95 -0.81,-13.85 -39.97,-20.58 -99.94,-4.09 -99.94,-4.09 0,0 0.16,1.67 0.44,4.49 8.21,1.18 19.95,3.01 32.76,5.41 10.68,2 22.1,4.4 32.81,7.15 8.98,2.31 15.7,10.16 20.72,20.55 3.15,6.51 5.64,14.03 7.59,21.8 2.74,10.84 4.45,22.18 5.52,32.01 0.86,7.93 1.31,14.88 1.54,19.8 0.22,4.76 0.24,7.61 0.24,7.61 l 1.04,-2.04 z" /></g></g></g></g><g
           id="g546"><g
             id="g548" /><g
             id="g560"><g
               style="opacity:0.13999903"
               id="g558"
               clip-path="url(#clipPath552)"><g
                 id="g556"
                 transform="translate(724.19,191.795)"><path
                   id="path554"
                   style="fill:#3a8ec1;fill-opacity:1;fill-rule:nonzero;stroke:none"
                   d="m 0,0 c -3.88,-15.81 -25.96,-21.48 -25.96,-21.48 0,0 -1.42,1.21 -3.66,3.17 5.63,3.88 8.25,9.14 8.78,15.14 0.57,6.52 -1.31,13.89 -4.46,21.28 -2.98,7.02 -7.11,14.07 -11.36,20.41 v 0.01 c -3.49,5.22 -7.06,9.97 -10.14,13.84 -1.6,2 -3.05,3.76 -4.3,5.24 1.56,-0.55 3,-1.16 4.26,-1.82 0.64,-0.34 1.36,-0.81 2.15,-1.41 2.95,-2.22 6.91,-6.12 11.28,-10.87 4.4,-4.81 9.22,-10.49 13.8,-16.19 4.19,-5.21 8.2,-10.43 11.51,-15 C -4.23,7 -1.28,2.55 0,0" /></g></g></g></g><g
           id="g562"><g
             id="g564" /><g
             id="g576"><g
               style="opacity:0.13999903"
               id="g574"
               clip-path="url(#clipPath568)"><g
                 id="g572"
                 transform="translate(581.44,205.555)"><path
                   id="path570"
                   style="fill:#3a8ec1;fill-opacity:1;fill-rule:nonzero;stroke:none"
                   d="m 0,0 c -0.17,-1.12 -0.34,-2.23 -0.51,-3.33 -1.3,-8.35 -2.65,-16.26 -3.89,-23.25 -0.15,-0.85 -0.3,-1.68 -0.44,-2.5 -1.3,-7.17 -2.46,-13.22 -3.31,-17.56 -19.5,1.48 -25.12,12.9 -25.12,12.9 0,0 0.19,0.58 0.53,1.63 4.18,-1.72 13.53,-3.92 21.78,5.87 3.85,4.59 7.47,11.8 10.2,22.93 v 0.01 c 0.25,1.02 0.49,2.07 0.73,3.16 0.01,0.05 0.02,0.09 0.03,0.14" /></g></g></g></g><g
           transform="translate(688.68,116.945)"
           id="g578"><path
             id="path580"
             style="fill:#ffcdab;fill-opacity:1;fill-rule:nonzero;stroke:none"
             d="m 0,0 c -1.49,-1.35 -2.7,-2.47 -3.58,-3.31 -2.83,-13.92 -11.26,-24.48 -16.43,-27.85 -1.37,-0.89 -2.51,-1.28 -3.26,-1.09 -3.58,0.9 -8.05,11.04 -9.54,13.22 -1.29,1.88 -7.54,2 -4.08,10 0.52,1.22 1.27,2.62 2.29,4.23 7.75,12.23 21.78,13.44 21.78,13.44 z" /></g><g
           transform="translate(689.2726,110.7615)"
           id="g582"><path
             id="path584"
             style="fill:#f2852f;fill-opacity:1;fill-rule:nonzero;stroke:none"
             d="m 0,0 c 1.96,0.724 2.998,3.023 2.826,5.105 -0.171,2.083 -1.303,3.963 -2.585,5.614 -2.632,3.393 -5.979,6.149 -9.297,8.876 -4.834,3.972 -7.477,-1.858 -4.308,-5.761 C -9.376,8.922 -4.398,4.553 0,0" /></g><g
           transform="translate(668.67,85.785)"
           id="g586"><path
             id="path588"
             style="fill:#f7c39f;fill-opacity:1;fill-rule:nonzero;stroke:none"
             d="m 0,0 c -1.37,-0.89 -2.51,-1.28 -3.26,-1.09 -3.58,0.9 -8.05,11.04 -9.54,13.22 -1.29,1.88 -7.54,2 -4.08,10 0.72,-2.5 2.12,-4.82 4.78,-4.51 5.62,0.66 2.64,-5.48 5.29,-7.21 C -4.17,8.69 -7.98,9.67 -4.75,6.37 -2.56,4.13 -0.87,1.48 0,0" /></g><g
           transform="translate(608.5303,257.6455)"
           id="g590"><path
             id="path592"
             style="fill:none;stroke:#1a1a1a;stroke-width:1.5;stroke-linecap:round;stroke-linejoin:round;stroke-miterlimit:10;stroke-dasharray:none;stroke-opacity:1"
             d="m 0,0 c -0.935,-8.573 -1.872,-17.191 -1.412,-25.803 0.46,-8.612 2.386,-17.294 6.817,-24.692 0.475,-0.794 1,-1.594 1.765,-2.113 2.351,-1.594 5.552,0.18 7.421,2.319 2.247,2.573 3.772,5.686 5.209,8.786 6.46,13.935 11.688,28.441 15.604,43.294" /></g><g
           transform="translate(614.9744,200.2798)"
           id="g594"><path
             id="path596"
             style="fill:#f8d429;fill-opacity:1;fill-rule:nonzero;stroke:none"
             d="M 0,0 C 0,2.554 1.536,4.625 3.431,4.625 5.326,4.625 6.862,2.554 6.862,0 6.862,-2.554 5.326,-4.625 3.431,-4.625 1.536,-4.625 0,-2.554 0,0" /></g><g
           transform="translate(178.37,246.975)"
           id="g598"><path
             id="path600"
             style="fill:#ffcdab;fill-opacity:1;fill-rule:nonzero;stroke:none"
             d="M 0,0 C -11.98,-2.77 -35.54,30.89 -35.54,30.89 V 47.66 L 0,42.81 c 0,0 -1.24,-5.62 -0.93,-10.76 0.27,-4.62 1.8,-8.85 6.61,-8.22 C 9.83,14.33 11.99,2.76 0,0" /></g><g
           transform="translate(177.44,279.025)"
           id="g602"><path
             id="path604"
             style="fill:#f9bb91;fill-opacity:1;fill-rule:nonzero;stroke:none"
             d="m 0,0 c -1.75,-0.77 -3.71,-1.2 -5.87,-1.09 -9.38,0.48 -19.53,2.42 -28.74,10.54 v 6.16 L 0.93,10.76 C 0.93,10.76 -0.31,5.14 0,0" /></g><g
           transform="translate(153.7271,264.171)"
           id="g606"><path
             id="path608"
             style="fill:#194f97;fill-opacity:1;fill-rule:nonzero;stroke:none"
             d="M 0,0 C 0,0 26.346,-22.495 32.525,4.868 38.684,-15.509 35.173,-29.116 27.67,-32.646 20.167,-36.177 0,0 0,0" /></g><g
           transform="translate(163.3573,252.5981)"
           id="g610"><path
             id="path612"
             style="fill:none;stroke:#60aad9;stroke-width:1;stroke-linecap:butt;stroke-linejoin:miter;stroke-miterlimit:10;stroke-dasharray:none;stroke-opacity:1"
             d="M 0,0 C 3.284,2.001 13.627,-5.185 20.688,3.642" /></g><g
           transform="translate(62.3,276.855)"
           id="g614"><path
             id="path616"
             style="fill:#ffcdab;fill-opacity:1;fill-rule:nonzero;stroke:none"
             d="m 0,0 c -2.6,-9.43 -1.18,-19.52 -5.42,-24.26 -4.25,-4.73 -4.48,-4.26 -2.6,-9.68 1.89,-5.42 0.24,-6.13 0.24,-6.13 l -13.51,-3.29 -4.82,-1.18 c 0,0 -2.65,11.54 -4.06,12.72 -1.42,1.18 -5.42,0.51 -8.02,7.56 -2.59,7.06 -3.77,16.95 -5.89,21.2 -2.12,4.24 -5.89,9.06 -4.71,12.43 0.22,0.62 0.48,1.07 0.79,1.38 1.31,1.4 3.28,0.1 4.63,-1.38 1.65,-1.83 7.48,-13.29 10.08,-16.35 2.59,-3.07 -8.2,23.44 -7.49,25.7 0.71,2.26 2.81,8.25 12.49,7.96 3.3,-5.47 8.43,-28.95 9.37,-28.71 0.95,0.23 -3.71,27.6 -1.59,28.72 2.12,1.12 7.07,-0.06 7.78,-3.36 0.71,-3.3 2.83,-28.28 2.83,-28.28 0,0 2.78,14.25 6.1,14.32 C -0.48,9.43 2.59,9.43 0,0" /></g><g
           transform="translate(40.6123,252.5981)"
           id="g618"><path
             id="path620"
             style="fill:none;stroke:#e89879;stroke-width:1;stroke-linecap:round;stroke-linejoin:round;stroke-miterlimit:10;stroke-dasharray:none;stroke-opacity:1"
             d="M 0,0 C 0,0 0.943,12.155 11.313,18.206" /></g><g
           transform="translate(25.7636,266.4432)"
           id="g622"><path
             id="path624"
             style="fill:none;stroke:#e89879;stroke-width:1;stroke-linecap:round;stroke-linejoin:round;stroke-miterlimit:10;stroke-dasharray:none;stroke-opacity:1"
             d="M 0,0 C 0,0 7.071,5.935 20.505,9.234" /></g><g
           transform="translate(26.7771,302.1731)"
           id="g626"><path
             id="path628"
             style="fill:none;stroke:#e89879;stroke-width:1;stroke-linecap:round;stroke-linejoin:round;stroke-miterlimit:10;stroke-dasharray:none;stroke-opacity:1"
             d="M 0,0 9.417,-29.827" /></g><g
           transform="translate(41.01,233.495)"
           id="g630"><path
             id="path632"
             style="fill:#f9bb91;fill-opacity:1;fill-rule:nonzero;stroke:none"
             d="m 0,0 -4.82,-1.18 c 0,0 -2.65,11.54 -4.06,12.72 -1.42,1.18 -5.42,0.51 -8.02,7.56 -2.59,7.06 -3.77,16.95 -5.89,21.2 -2.12,4.24 -5.89,9.06 -4.71,12.43 0.22,0.62 0.48,1.07 0.79,1.38 4.67,-7.77 11.45,-20.28 11.46,-27.44 C -15.22,15.75 -0.4,12.68 -0.4,12.68 -0.4,12.68 -3.86,7.15 0,0" /></g><g
           transform="translate(115.1955,93.665)"
           id="g634"><path
             id="path636"
             style="fill:#ffbfc2;fill-opacity:1;fill-rule:nonzero;stroke:none"
             d="m 0,0 2.252,-6.778 c 0,0 68.87,-30.057 105.811,1.938 -0.356,8.92 0,10.125 0,10.125 C 108.063,5.285 62.348,-9.138 0,0" /></g><g
           transform="translate(190.6612,81.4102)"
           id="g638"><path
             id="path640"
             style="fill:none;stroke:#ff5467;stroke-width:1;stroke-linecap:butt;stroke-linejoin:miter;stroke-miterlimit:10;stroke-dasharray:none;stroke-opacity:1"
             d="m 0,0 -13.842,-0.025 1.721,-7.697" /></g><g
           transform="translate(251.57,153.845)"
           id="g642"><path
             id="path644"
             style="fill:#ff5d59;fill-opacity:1;fill-rule:nonzero;stroke:none"
             d="m 0,0 c -1.74,-10.05 -8.69,-18.8 -15.25,-23.25 -0.07,-0.05 -0.13,-0.1 -0.2,-0.14 0.45,-3.53 -5.73,-6.62 -5.73,-6.62 0,0 2.2,-14.12 -4.86,-17.21 -0.41,-5.83 0.88,-13.68 0.88,-13.68 0,0 -19.57,-1.19 -42.61,-2.06 -31.21,-1.17 -68.77,-1.75 -72.58,2.06 -6.38,6.38 -2.54,10.26 -2.26,10.53 -0.22,-0.03 -2.19,-0.31 -4.28,1.84 -3.5,3.61 -7.32,14.07 -3.73,43.99 0.04,0.33 0.08,0.67 0.12,1.01 0,0 -21.58,-21.62 -42.57,-2.2 -15.1,13.97 -22.08,46 -23.32,64.18 -0.49,7.08 -0.1,12.06 1.01,13.05 -3.53,5.3 -3.08,7.06 3.54,10.15 3.1,1.45 7.18,3.28 10.75,4.55 4.05,1.45 7.45,2.16 8.02,0.75 1.09,-2.65 1.97,-7.51 1.97,-7.51 0,0 0.26,-0.04 0.73,-0.19 1.14,-0.36 3.53,-1.4 6.34,-4.22 3.96,-3.97 11.29,-27.18 11.29,-27.18 0,0 0.03,0.34 0.12,0.98 0.25,1.94 0.97,6.62 2.6,12.68 2.16,8.05 5.93,18.53 12.36,28.29 2.21,3.37 4.74,6.64 7.63,9.7 4.24,4.48 9.25,8.51 15.16,11.66 4.86,2.59 10.32,4.59 16.48,5.78 0.04,0.01 0.07,0.01 0.11,0.02 -0.88,7.5 4.86,14.12 8.39,11.47 3.53,-2.64 33.98,-38.83 38.83,-42.36 4.86,-3.54 3.09,10.15 3.54,16.32 0.44,6.18 -2.65,19.87 0,19.87 0.74,0 1.71,-0.27 2.75,-0.78 2.71,-1.35 5.88,-4.39 6.51,-8.88 0.12,-0.08 0.24,-0.16 0.37,-0.24 8.5,-5.42 24.83,-15.84 27.88,-25.41 1.59,-4.98 9.91,-25.07 17.4,-44.82 C -5.5,23.39 0.86,4.94 0,0" /></g><g
           transform="translate(100.95,149.305)"
           id="g646"><path
             id="path648"
             style="fill:#f94343;fill-opacity:1;fill-rule:nonzero;stroke:none"
             d="m 0,0 c 0.04,0.33 0.08,0.67 0.12,1.01 0,0 -21.58,-21.62 -42.57,-2.2 -15.1,13.97 -22.08,46 -23.32,64.18 C -54.86,39.98 -21.67,-20.96 7.18,19.27 4.73,10.29 5.21,10.2 0,0" /></g><g
           transform="translate(209.2801,211.1693)"
           id="g650"><path
             id="path652"
             style="fill:#f94343;fill-opacity:1;fill-rule:nonzero;stroke:none"
             d="m 0,0 c 0,0 5.147,-26.931 12.703,-24.345 0,0 -5.287,-7.603 -6.196,-9.929 C 5.172,-30.913 -0.86,-7.031 0,0" /></g><g
           transform="translate(251.57,153.845)"
           id="g654"><path
             id="path656"
             style="fill:#f94343;fill-opacity:1;fill-rule:nonzero;stroke:none"
             d="m 0,0 c -1.74,-10.05 -8.69,-18.8 -15.25,-23.25 -1.47,6.28 -3.59,11.07 -5.93,15.5 12.31,5.22 10.58,33.86 8.57,49.88 C -5.5,23.39 0.86,4.94 0,0" /></g><g
           transform="translate(177.43,122.075)"
           id="g658"><path
             id="path660"
             style="fill:#f94343;fill-opacity:1;fill-rule:nonzero;stroke:none"
             d="M 0,0 C -2.82,-4.43 -39.4,-5.19 -49.84,-1.26 -20.95,5.21 -7.93,30.92 -3.16,43.66 -0.99,33.96 2.69,4.23 0,0" /></g><g
           transform="translate(170.24,239.905)"
           id="g662"><path
             id="path664"
             style="fill:#f94343;fill-opacity:1;fill-rule:nonzero;stroke:none"
             d="m 0,0 c -28.21,-1.04 -46.61,16.87 -53.54,25.1 4.86,2.59 10.32,4.59 16.48,5.78 C -27.99,21.68 -7.79,5.59 0,0" /></g><g
           transform="translate(113.98,232.315)"
           id="g666"><path
             id="path668"
             style="fill:#f94343;fill-opacity:1;fill-rule:nonzero;stroke:none"
             d="m 0,0 c -5.66,5.51 -13.46,9.78 -20.07,11.33 2.21,3.37 4.74,6.64 7.63,9.7 C -8.97,17.9 -3.94,11.69 0,0" /></g><g
           transform="translate(89.42,186.825)"
           id="g670"><path
             id="path672"
             style="fill:#f94343;fill-opacity:1;fill-rule:nonzero;stroke:none"
             d="m 0,0 c -2.97,5.14 -9.51,13.65 -9.51,13.65 l -0.96,2.2 c 0.25,1.94 0.97,6.62 2.6,12.68 C -5.6,24.15 -0.15,12.41 0,0" /></g><g
           transform="translate(50.48,240.045)"
           id="g674"><path
             id="path676"
             style="fill:#f94343;fill-opacity:1;fill-rule:nonzero;stroke:none"
             d="m 0,0 c 4.05,1.45 7.45,2.16 8.02,0.75 1.09,-2.65 1.97,-7.51 1.97,-7.51 0,0 0.26,-0.04 0.73,-0.19 C 7.35,-8.56 2.85,-10.05 -1.06,-11.32 3.85,-9.33 2.08,-3.89 0,0" /></g><g
           transform="translate(191.14,243.305)"
           id="g678"><path
             id="path680"
             style="fill:#f94343;fill-opacity:1;fill-rule:nonzero;stroke:none"
             d="M 0,0 C 2.53,17.15 -1.75,27.55 -4.34,32.02 -1.63,30.67 1.54,27.63 2.17,23.14 2.29,23.06 2.41,22.98 2.54,22.9 2.31,15.64 1.24,6.31 0,0" /></g><g
           transform="translate(183.8,90.885)"
           id="g682"><path
             id="path684"
             style="fill:#f94343;fill-opacity:1;fill-rule:nonzero;stroke:none"
             d="m 0,0 c -31.21,-1.17 -68.77,-1.75 -72.58,2.06 -6.38,6.38 -2.54,10.26 -2.26,10.53 -0.22,-0.03 -2.19,-0.31 -4.28,1.84 C -70.49,11.68 -45.74,5.78 2.16,8.41 -0.89,5.73 -0.62,2.23 0,0" /></g><g
           transform="translate(115.1955,207.6919)"
           id="g686"><path
             id="path688"
             style="fill:none;stroke:#ffc6c8;stroke-width:1;stroke-linecap:round;stroke-linejoin:round;stroke-miterlimit:10;stroke-dasharray:none;stroke-opacity:1"
             d="M 0,0 C 0,0 -4.413,-46.341 -14.123,-57.375" /></g><g
           transform="translate(91.3628,179.0044)"
           id="g690"><path
             id="path692"
             style="fill:none;stroke:#ffc6c8;stroke-width:1;stroke-linecap:round;stroke-linejoin:round;stroke-miterlimit:10;stroke-dasharray:none;stroke-opacity:1"
             d="M 0,0 C 0,0 1.864,6.55 -12.529,22.694" /></g><g
           transform="translate(133.2906,270.8044)"
           id="g694"><path
             id="path696"
             style="fill:none;stroke:#ffc6c8;stroke-width:1;stroke-linecap:round;stroke-linejoin:round;stroke-miterlimit:10;stroke-dasharray:none;stroke-opacity:1"
             d="m 0,0 c 0,0 40.604,-39.721 51.196,-36.19 10.592,3.53 8.827,31.829 8.827,31.829" /></g><g
           transform="translate(108.9831,103.4899)"
           id="g698"><path
             id="path700"
             style="fill:none;stroke:#ffc6c8;stroke-width:1;stroke-linecap:round;stroke-linejoin:round;stroke-miterlimit:10;stroke-dasharray:none;stroke-opacity:1"
             d="M 0,0 C 0,0 64.47,-13.196 116.549,3.134" /></g><g
           transform="translate(184.4868,234.614)"
           id="g702"><path
             id="path704"
             style="fill:none;stroke:#ffc6c8;stroke-width:1;stroke-linecap:round;stroke-linejoin:round;stroke-miterlimit:10;stroke-dasharray:none;stroke-opacity:1"
             d="m 0,0 c 0,0 -3.531,-28.943 2.207,-44.262 5.737,-15.32 31.844,-43.791 22.763,-87.813" /></g><g
           transform="translate(177.43,122.075)"
           id="g706"><path
             id="path708"
             style="fill:none;stroke:#ffc6c8;stroke-width:1;stroke-linecap:round;stroke-linejoin:round;stroke-miterlimit:10;stroke-dasharray:none;stroke-opacity:1"
             d="m 0,0 c -2.82,-4.43 -39.4,-5.19 -49.84,-1.26 -1.01,0.37 -1.77,0.79 -2.24,1.26 0,0 -5.3,11.91 -2.65,19.41 2.65,7.51 7.94,21.19 10.59,28.69 2.65,7.51 38.4,1.66 40.16,-1.6 0.23,-0.42 0.51,-1.41 0.82,-2.84 C -0.99,33.96 2.69,4.23 0,0 Z" /></g><g
           transform="translate(208.7608,220.4909)"
           id="g710"><path
             id="path712"
             style="fill:none;stroke:#ffc6c8;stroke-width:1;stroke-linecap:round;stroke-linejoin:round;stroke-miterlimit:10;stroke-dasharray:none;stroke-opacity:1"
             d="M 0,0 C 0,0 0.883,-31.777 7.503,-44.576" /></g><g
           transform="translate(225.532,190.3516)"
           id="g714"><path
             id="path716"
             style="fill:none;stroke:#ffc6c8;stroke-width:1;stroke-linecap:round;stroke-linejoin:round;stroke-miterlimit:10;stroke-dasharray:none;stroke-opacity:1"
             d="m 0,0 c 0,0 -10.151,-8.449 -9.268,-16.518 3.53,-11.6 17.212,-31.02 18.536,-37.198 l 1.324,-6.179" /></g><g
           transform="translate(216.2637,175.915)"
           id="g718"><path
             id="path720"
             style="fill:none;stroke:#ffc6c8;stroke-width:1;stroke-linecap:round;stroke-linejoin:round;stroke-miterlimit:10;stroke-dasharray:none;stroke-opacity:1"
             d="m 0,0 c 0,0 -9.268,-0.883 -9.71,-3.972 -0.441,-3.09 11.475,-41.928 13.241,-45.459 1.765,-3.531 10.592,-2.648 10.592,-2.648" /></g><g
           transform="translate(36.1945,225.3457)"
           id="g722"><path
             id="path724"
             style="fill:none;stroke:#ffc6c8;stroke-width:1;stroke-linecap:round;stroke-linejoin:round;stroke-miterlimit:10;stroke-dasharray:none;stroke-opacity:1"
             d="M 0,0 C 0,0 17.654,3.531 24.274,7.944" /></g><g
           transform="translate(104.843,248.9865)"
           id="g726"><path
             id="path728"
             style="fill:#ffc6c8;fill-opacity:1;fill-rule:nonzero;stroke:none"
             d="m 0,0 c 6.21,-6.542 9.006,-15.471 9.919,-24.282 0.259,-2.504 0.372,-5.021 0.375,-7.538 10e-4,-0.643 1.001,-0.644 1,0 -0.013,9.056 -1.425,18.492 -6.031,26.43 C 3.986,-3.189 2.459,-1.138 0.707,0.707 0.263,1.175 -0.443,0.467 0,0" /></g><g
           transform="translate(176.6895,209.1298)"
           id="g730"><path
             id="path732"
             style="fill:#ffc6c8;fill-opacity:1;fill-rule:nonzero;stroke:none"
             d="M 0,0 C -0.985,-7.025 0.103,-14.206 3.14,-20.619 3.415,-21.2 4.278,-20.693 4.003,-20.114 1.093,-13.97 0.02,-7.001 0.964,-0.266 1.053,0.364 0.089,0.636 0,0" /></g><g
           transform="translate(174.4107,196.0111)"
           id="g734"><path
             id="path736"
             style="fill:#ffc6c8;fill-opacity:1;fill-rule:nonzero;stroke:none"
             d="M 0,0 C 0.172,-3.408 1.355,-6.718 3.418,-9.439 3.802,-9.946 4.671,-9.448 4.282,-8.935 2.323,-6.352 1.164,-3.24 1,0 0.968,0.64 -0.033,0.644 0,0" /></g><g
           transform="translate(223.6904,176.2056)"
           id="g738"><path
             id="path740"
             style="fill:#ffc6c8;fill-opacity:1;fill-rule:nonzero;stroke:none"
             d="M 0,0 C 1.679,3.684 4.153,6.941 7.251,9.546 7.745,9.961 7.034,10.665 6.544,10.253 3.39,7.601 0.846,4.255 -0.863,0.505 -1.128,-0.077 -0.267,-0.585 0,0" /></g><g
           transform="translate(227.6308,176.1005)"
           id="g742"><path
             id="path744"
             style="fill:#ffc6c8;fill-opacity:1;fill-rule:nonzero;stroke:none"
             d="M 0,0 C 1.447,1.765 3.017,3.425 4.698,4.968 5.173,5.404 4.465,6.11 3.991,5.675 2.31,4.132 0.74,2.472 -0.707,0.707 -0.878,0.498 -0.911,0.204 -0.707,0 -0.531,-0.177 -0.172,-0.21 0,0" /></g><g
           transform="translate(52.14,171.1591)"
           id="g746"><path
             id="path748"
             style="fill:#ffc6c8;fill-opacity:1;fill-rule:nonzero;stroke:none"
             d="m 0,0 c 2.769,-7.909 7.829,-15.906 16.443,-18.138 0.623,-0.161 0.889,0.803 0.266,0.964 C 8.448,-15.034 3.617,-7.311 0.964,0.266 0.753,0.869 -0.213,0.61 0,0" /></g><g
           transform="translate(122.3174,321.6041)"
           id="g750"><path
             id="path752"
             style="fill:#f2852f;fill-opacity:1;fill-rule:nonzero;stroke:none"
             d="m 0,0 c -2.482,6.025 -4.066,12.419 -4.684,18.906 -0.618,6.476 0.116,13.874 5.143,18.004 2.589,2.128 5.998,3.081 8.544,5.261 2.856,2.445 4.392,6.234 7.467,8.398 2.861,2.012 6.634,2.313 9.576,4.204 2.663,1.712 5.04,4.807 8.16,4.27 1.567,-0.269 2.824,-1.447 4.337,-1.937 3.271,-1.06 6.986,1.264 10.194,0.026 1.731,-0.667 2.925,-2.238 4.42,-3.337 2.929,-2.15 6.789,-2.362 10.312,-3.248 3.523,-0.887 7.31,-3.128 7.67,-6.743 0.135,-1.349 -0.238,-2.761 0.207,-4.042 0.931,-2.683 4.848,-3.35 5.809,-6.023 0.836,-2.325 -1.024,-4.765 -1.004,-7.235 0.016,-1.976 1.229,-3.744 1.575,-5.689 0.599,-3.365 -1.423,-6.566 -2.37,-9.849 C 74.439,7.783 74.524,4.37 73.527,1.212 72.53,-1.946 69.883,-5.023 66.576,-4.846 c -3.129,0.168 -5.419,3.208 -6.103,6.266 -0.684,3.057 -0.227,6.242 -0.375,9.371 -0.317,6.688 -3.64,13.268 -9.106,17.135 -5.466,3.868 -13.017,4.769 -19.067,1.9 -0.718,-0.34 -1.429,-0.742 -1.946,-1.344 C 29.442,27.856 29.153,27.061 28.875,26.285 27.474,22.379 26.074,18.473 24.673,14.566 23.405,11.03 22.109,7.44 19.894,4.407 17.678,1.373 14.376,-1.081 10.632,-1.384 7.114,-1.668 3.748,-0.068 0.597,1.521 Z" /></g><g
           transform="translate(173.19,287.355)"
           id="g754"><path
             id="path756"
             style="fill:#ffcdab;fill-opacity:1;fill-rule:nonzero;stroke:none"
             d="m 0,0 c -0.53,-0.12 -1.07,-0.24 -1.62,-0.36 -12.8,-2.69 -23.3,2.06 -30.81,7.8 -8.31,6.33 -12.94,13.88 -12.94,13.88 -0.09,-0.1 -0.18,-0.2 -0.27,-0.29 -3.29,-3.37 -8.94,-3.59 -12.73,-0.58 h -0.01 c -2.9,2.31 -4.7,6.51 -3.49,12.65 2.83,14.38 15.56,9.43 19.33,4.01 16.26,2.59 12.18,29.23 12.18,29.23 0,0 10.21,8.25 28.74,5.65 18.53,-2.59 19.41,-22.86 19.41,-28.52 0,-3.29 1.28,-4.9 2.68,-7.21 1,-1.66 2.06,-3.68 2.75,-6.93 0.04,-0.18 0.08,-0.37 0.11,-0.56 C 24.85,20.97 24.72,5.81 0,0" /></g><g
           transform="translate(119.5259,318.8026)"
           id="g758"><path
             id="path760"
             style="fill:#e89879;fill-opacity:1;fill-rule:nonzero;stroke:none"
             d="M 0,0 C 1.774,-1.059 3.392,-2.343 4.829,-3.828 4.862,-3.566 4.896,-3.304 4.93,-3.043 3.585,-3.718 2.24,-4.393 0.895,-5.068 0.32,-5.357 0.826,-6.22 1.4,-5.931 c 1.345,0.675 2.69,1.35 4.035,2.025 0.294,0.148 0.312,0.567 0.101,0.785 C 4.043,-1.578 2.347,-0.237 0.505,0.863 -0.049,1.194 -0.553,0.33 0,0" /></g><g
           transform="translate(172.1353,326.0836)"
           id="g762"><path
             id="path764"
             style="fill:#e89879;fill-opacity:1;fill-rule:nonzero;stroke:none"
             d="m 0,0 c -0.626,-2.254 1.361,-3.8 2.699,-5.265 0.754,-0.826 1.26,-1.79 1.07,-2.938 -0.196,-1.181 -0.911,-2.234 -1.664,-3.133 -0.411,-0.49 0.293,-1.201 0.707,-0.707 1.4,1.673 2.649,3.923 1.592,6.095 C 3.94,-4.994 3.126,-4.269 2.391,-3.529 1.548,-2.682 0.61,-1.543 0.964,-0.266 1.137,0.355 0.172,0.62 0,0" /></g><g
           transform="translate(152.8438,332.9922)"
           id="g766"><path
             id="path768"
             style="fill:#1a1a1a;fill-opacity:1;fill-rule:nonzero;stroke:none"
             d="M 0,0 C 0.843,1.602 2.349,2.752 4.131,3.102 5.977,3.464 7.943,2.797 9.275,1.498 9.967,0.824 11.029,1.883 10.336,2.559 8.635,4.217 6.227,4.976 3.884,4.576 1.691,4.202 -0.265,2.714 -1.295,0.757 -1.745,-0.096 -0.45,-0.855 0,0" /></g><g
           transform="translate(178.924,335.6021)"
           id="g770"><path
             id="path772"
             style="fill:#1a1a1a;fill-opacity:1;fill-rule:nonzero;stroke:none"
             d="M 0,0 C 0.606,0.964 1.824,1.348 2.916,1.232 4.238,1.091 5.396,0.253 6.313,-0.656 6.999,-1.336 8.061,-0.276 7.374,0.405 6.137,1.631 4.586,2.617 2.81,2.74 1.211,2.851 -0.433,2.129 -1.295,0.757 -1.81,-0.063 -0.513,-0.816 0,0" /></g><g
           transform="translate(158.5123,299.7781)"
           id="g774"><path
             id="path776"
             style="fill:#ffffff;fill-opacity:1;fill-rule:nonzero;stroke:none"
             d="m 0,0 c 2.01,-1.949 4.727,-3.004 7.452,-3.646 2.871,-0.678 6.006,-0.924 8.674,0.337 2.667,1.261 4.598,4.426 3.639,7.216 -0.522,1.52 -2.076,2.79 -3.654,2.485 C 15.47,6.268 14.9,5.91 14.28,5.705 12.617,5.157 10.772,5.777 9.316,6.749 7.859,7.722 6.657,9.029 5.256,10.08 3.855,11.13 2.127,11.939 0.397,11.67 -4.951,10.839 -2.501,2.426 0,0" /></g><g
           transform="translate(160.8501,326.3362)"
           id="g778"><path
             id="path780"
             style="fill:#000000;fill-opacity:1;fill-rule:nonzero;stroke:none"
             d="m 0,0 c 0,-1.822 -0.918,-3.3 -2.05,-3.3 -1.132,0 -2.05,1.478 -2.05,3.3 0,1.822 0.918,3.3 2.05,3.3 C -0.918,3.3 0,1.822 0,0" /></g><g
           transform="translate(182.1629,327.9617)"
           id="g782"><path
             id="path784"
             style="fill:#000000;fill-opacity:1;fill-rule:nonzero;stroke:none"
             d="m 0,0 c 0,-1.822 -0.918,-3.3 -2.05,-3.3 -1.132,0 -2.05,1.478 -2.05,3.3 0,1.822 0.918,3.3 2.05,3.3 C -0.918,3.3 0,1.822 0,0" /></g><g
           transform="translate(155.7552,306.465)"
           id="g786"><path
             id="path788"
             style="fill:none;stroke:#d7d6d4;stroke-width:1;stroke-linecap:butt;stroke-linejoin:miter;stroke-miterlimit:10;stroke-dasharray:none;stroke-opacity:1"
             d="M 0,0 C 3.09,-2.99 10.34,-8.14 22.34,-6.37" /></g><g
           transform="translate(128.08,316.265)"
           id="g790"><path
             id="path792"
             style="fill:#f9bb91;fill-opacity:1;fill-rule:nonzero;stroke:none"
             d="M 0,0 C -0.1,-2.9 -0.31,-5.62 -0.53,-7.88 -3.82,-11.25 -9.47,-11.47 -13.26,-8.46 -9.55,-9.79 -4.73,-8.8 0,0" /></g><g
           transform="translate(150.1653,320.1725)"
           id="g794"><path
             id="path796"
             style="fill:#f9bb91;fill-opacity:1;fill-rule:nonzero;stroke:none"
             d="m 0,0 c 0,2.424 -1.965,4.388 -4.388,4.388 -2.424,0 -4.388,-1.964 -4.388,-4.388 0,-2.424 1.964,-4.388 4.388,-4.388 C -1.965,-4.388 0,-2.424 0,0" /></g><g
           transform="translate(196.52,316.125)"
           id="g798"><path
             id="path800"
             style="fill:#f9bb91;fill-opacity:1;fill-rule:nonzero;stroke:none"
             d="m 0,0 c -0.8,-0.79 -1.88,-1.28 -3.1,-1.28 -2.42,0 -4.38,1.97 -4.38,4.39 0,2.42 1.96,4.39 4.38,4.39 0.08,0 0.16,0 0.24,-0.01 1,-1.66 2.06,-3.68 2.75,-6.93 C -0.07,0.38 -0.03,0.19 0,0" /></g></g></g></g></svg>