<?xml version="1.0" encoding="utf-8"?>
<svg viewBox="0 0 3500 3500" xmlns="http://www.w3.org/2000/svg">
  <defs>
    <style>.aa23d6ba-f3d1-43e8-9a93-056a7d7c086d{fill:#ff0700;}.f367ddf8-515d-4b8a-b988-261d8c8d4a55{fill:#16182f;}.aa42bb40-97d3-4c94-b110-a7e91ec9efa8,.ec2781fe-f7a0-4f81-bd9d-5168bcb9ebd6{fill:#ffa586;}.e7fefd2e-97bb-4147-b897-bb66ab7347d2{fill:#fff;}.ec2781fe-f7a0-4f81-bd9d-5168bcb9ebd6{font-size:140px;font-family:Saira-Medium, Saira;font-weight:500;}.be6621b7-c33a-4469-81b1-e353ba75dcb7{letter-spacing:0em;}.bfbde7a6-8a1f-4df5-8c6c-ce1289d38fa8{letter-spacing:0em;}</style>
  </defs>
  <g id="a0bcaa31-738d-4a00-b948-df75aa9ff591" data-name="LOGO">
    <rect class="f367ddf8-515d-4b8a-b988-261d8c8d4a55" width="3500" height="3500" style="visibility: hidden;"/>
    <path class="aa42bb40-97d3-4c94-b110-a7e91ec9efa8" d="M805.92,2026.13a44.5,44.5,0,0,1-44.51-44.51V929.77A44.51,44.51,0,0,1,825,889.57l803.53,381.85a44.51,44.51,0,0,1-38.21,80.41L850.43,1000.21v911l739.91-351.62a44.51,44.51,0,0,1,38.21,80.4L825,2021.82A44.48,44.48,0,0,1,805.92,2026.13Z"/>
    <path class="aa42bb40-97d3-4c94-b110-a7e91ec9efa8" d="M1609.44,1411.19H1276.05c-19.93-80.67-92.75-140.49-179.57-140.49-102.17,0-185,82.83-185,185s82.83,185,185,185c86.82,0,159.64-59.82,179.57-140.48h333.39a44.51,44.51,0,1,0,0-89Zm-514.21,133.23A88.73,88.73,0,1,1,1184,1455.7,88.73,88.73,0,0,1,1095.23,1544.42Z"/>
    <path class="aa42bb40-97d3-4c94-b110-a7e91ec9efa8" d="M2717.86,892.15a44.5,44.5,0,0,0-42.88-2.58l-803.52,381.85a44.51,44.51,0,0,0,38.2,80.41l739.91-351.62v911l-739.91-351.61a44.51,44.51,0,0,0-63.61,40l-2.34,416.07a93.71,93.71,0,1,1-93.71-93.71,44.51,44.51,0,0,0,44.51-44.51V1502.55h450.67c19.93,80.66,92.75,140.48,179.57,140.48,102.17,0,185-82.82,185-185s-82.83-185-185-185c-86.82,0-159.64,59.82-179.57,140.49H1794.51v-400.9c89.84-20.27,157-100.51,157-196.48,0-111.26-90.2-201.46-201.47-201.46s-201.47,90.2-201.47,201.46c0,96,67.12,176.21,157,196.48v825.71c-79.31,19.93-138.22,91.84-138.22,177.25,0,100.75,82,182.72,182.73,182.72s182.73-82,182.73-182.47l2-345.83L2675,2021.82a44.5,44.5,0,0,0,63.61-40.2V929.77A44.48,44.48,0,0,0,2717.86,892.15ZM2338.4,1444.56a88.73,88.73,0,1,1,0,27,44.52,44.52,0,0,0,0-27Z"/>
    <polygon class="e7fefd2e-97bb-4147-b897-bb66ab7347d2" points="1633.64 2550.76 1483.75 2344.09 1419.54 2344.09 1419.54 2699.84 1470.69 2699.84 1470.69 2420.26 1613.06 2608.32 1653.71 2608.51 1799.74 2419.14 1799.74 2699.84 1850.89 2699.84 1850.89 2344.09 1786.68 2344.09 1633.64 2550.76"/>
    <path class="e7fefd2e-97bb-4147-b897-bb66ab7347d2" d="M1150.07,2699.84H908v-51.15h242.07a53.49,53.49,0,0,0,0-107H1006.81a98.82,98.82,0,0,1,0-197.63h246.48v51.16H1006.81a47.66,47.66,0,1,0,0,95.32h143.26a104.64,104.64,0,1,1,0,209.27Z"/>
    <rect class="e7fefd2e-97bb-4147-b897-bb66ab7347d2" x="2365.88" y="2344.09" width="62.78" height="355.75" style=""/>
    <rect class="e7fefd2e-97bb-4147-b897-bb66ab7347d2" x="2049.66" y="2344.09" width="95.33" height="113.93"/>
    <rect class="e7fefd2e-97bb-4147-b897-bb66ab7347d2" x="2521.67" y="2345.26" width="95.33" height="113.93"/>
    <rect class="e7fefd2e-97bb-4147-b897-bb66ab7347d2" x="2049.66" y="2585.91" width="95.33" height="113.93"/>
    <polygon class="e7fefd2e-97bb-4147-b897-bb66ab7347d2" points="2521.67 2587.07 2521.67 2649.85 2582.12 2649.85 2582.12 2677.76 2540.27 2677.76 2521.67 2699.84 2545.86 2699.84 2601.52 2699.84 2617 2679.15 2617 2649.85 2617 2645.2 2617 2587.07 2521.67 2587.07"/>
    <text class="ec2781fe-f7a0-4f81-bd9d-5168bcb9ebd6" transform="translate(911.8 2857.31)" style="white-space: pre;">Super Me<tspan class="be6621b7-c33a-4469-81b1-e353ba75dcb7" x="622.29" y="0">r</tspan><tspan x="674.79" y="0">cado Ingenie</tspan><tspan class="bfbde7a6-8a1f-4df5-8c6c-ce1289d38fa8" x="1498.69" y="0">r</tspan><tspan x="1551.18" y="0">os</tspan></text>
  </g>
</svg>