<svg xmlns="http://www.w3.org/2000/svg" viewBox="0 0 3500 3500"><defs><style>.a1d685aa-4182-4382-b185-5994062b23ae{fill:#00000000;}.b7113689-9a55-4b4c-b281-1f3d9f23ec88,.fcf9dfa2-b353-4b1b-b487-6a4d9dda6396{fill:#16182f;}.a2b2b864-2148-470e-8c46-6b6f6a40f46a{fill:#ffa586;}.fcf9dfa2-b353-4b1b-b487-6a4d9dda6396{font-size:140px;font-family:Saira-Medium, Saira;font-weight:500;}.a8020175-3a04-45ea-b9b0-49d9f76b19cd{letter-spacing:0em;}.adb5221d-47d5-46d8-b1bc-4bebd3017b6d{letter-spacing:0em;}</style></defs><g id="a1cbd644-0cab-4f13-9a61-f9553418df13" data-name="LOGO"><rect class="a1d685aa-4182-4382-b185-5994062b23ae" width="3500" height="3500"/><path class="b7113689-9a55-4b4c-b281-1f3d9f23ec88" d="M805.92,2026.13a44.5,44.5,0,0,1-44.51-44.51V929.77A44.51,44.51,0,0,1,825,889.57l803.53,381.85a44.51,44.51,0,0,1-38.21,80.41L850.43,1000.21v911l739.91-351.62a44.51,44.51,0,0,1,38.21,80.4L825,2021.82A44.48,44.48,0,0,1,805.92,2026.13Z"/><path class="b7113689-9a55-4b4c-b281-1f3d9f23ec88" d="M1609.44,1411.19H1276.05c-19.93-80.67-92.75-140.49-179.57-140.49-102.17,0-185,82.83-185,185s82.83,185,185,185c86.82,0,159.64-59.82,179.57-140.48h333.39a44.51,44.51,0,1,0,0-89Zm-514.21,133.23A88.73,88.73,0,1,1,1184,1455.7,88.73,88.73,0,0,1,1095.23,1544.42Z"/><path class="b7113689-9a55-4b4c-b281-1f3d9f23ec88" d="M2717.86,892.15a44.5,44.5,0,0,0-42.88-2.58l-803.52,381.85a44.51,44.51,0,0,0,38.2,80.41l739.91-351.62v911l-739.91-351.61a44.51,44.51,0,0,0-63.61,40l-2.34,416.07a93.71,93.71,0,1,1-93.71-93.71,44.51,44.51,0,0,0,44.51-44.51V1502.55h450.67c19.93,80.66,92.75,140.48,179.57,140.48,102.17,0,185-82.82,185-185s-82.83-185-185-185c-86.82,0-159.64,59.82-179.57,140.49H1794.51v-400.9c89.84-20.27,157-100.51,157-196.48,0-111.26-90.2-201.46-201.47-201.46s-201.47,90.2-201.47,201.46c0,96,67.12,176.21,157,196.48v825.71c-79.31,19.93-138.22,91.84-138.22,177.25,0,100.75,82,182.72,182.73,182.72s182.73-82,182.73-182.47l2-345.83L2675,2021.82a44.5,44.5,0,0,0,63.61-40.2V929.77A44.48,44.48,0,0,0,2717.86,892.15ZM2338.4,1444.56a88.73,88.73,0,1,1,0,27,44.52,44.52,0,0,0,0-27Z"/><polygon class="a2b2b864-2148-470e-8c46-6b6f6a40f46a" points="1633.64 2550.76 1483.75 2344.09 1419.54 2344.09 1419.54 2699.84 1470.69 2699.84 1470.69 2420.26 1613.06 2608.32 1653.71 2608.51 1799.74 2419.14 1799.74 2699.84 1850.89 2699.84 1850.89 2344.09 1786.68 2344.09 1633.64 2550.76"/><path class="a2b2b864-2148-470e-8c46-6b6f6a40f46a" d="M1150.07,2699.84H908v-51.15h242.07a53.49,53.49,0,0,0,0-107H1006.81a98.82,98.82,0,0,1,0-197.63h246.48v51.16H1006.81a47.66,47.66,0,1,0,0,95.32h143.26a104.64,104.64,0,1,1,0,209.27Z"/><rect class="a2b2b864-2148-470e-8c46-6b6f6a40f46a" x="2365.88" y="2344.09" width="62.78" height="355.75"/><rect class="a2b2b864-2148-470e-8c46-6b6f6a40f46a" x="2049.66" y="2344.09" width="95.33" height="113.93"/><rect class="a2b2b864-2148-470e-8c46-6b6f6a40f46a" x="2521.67" y="2345.26" width="95.33" height="113.93"/><rect class="a2b2b864-2148-470e-8c46-6b6f6a40f46a" x="2049.66" y="2585.91" width="95.33" height="113.93"/><polygon class="a2b2b864-2148-470e-8c46-6b6f6a40f46a" points="2521.67 2587.07 2521.67 2649.85 2582.12 2649.85 2582.12 2677.76 2540.27 2677.76 2521.67 2699.84 2545.86 2699.84 2601.52 2699.84 2617 2679.15 2617 2649.85 2617 2645.2 2617 2587.07 2521.67 2587.07"/><text class="fcf9dfa2-b353-4b1b-b487-6a4d9dda6396" transform="translate(911.8 2857.31)">Super Me<tspan class="a8020175-3a04-45ea-b9b0-49d9f76b19cd" x="622.29" y="0">r</tspan><tspan x="674.79" y="0">cado Ingenie</tspan><tspan class="adb5221d-47d5-46d8-b1bc-4bebd3017b6d" x="1498.69" y="0">r</tspan><tspan x="1551.18" y="0">os</tspan></text></g></svg>